<?xml version="1.0" encoding="UTF-8"?>
<svg width="500px" height="500px" viewBox="0 0 500 500" version="1.1" xmlns="http://www.w3.org/2000/svg" xmlns:xlink="http://www.w3.org/1999/xlink">
    <!-- Generator: Sketch 41.2 (35397) - http://www.bohemiancoding.com/sketch -->
    <title>Artboard 11</title>
    <desc>Created with Sketch.</desc>
    <defs></defs>
    <g id="Website-Icons" stroke="none" stroke-width="1" fill="none" fill-rule="evenodd">
        <g id="Artboard-11" fill="#4DC3C6">
            <g id="Logo" transform="translate(90.000000, 90.000000)">
                <path d="M231.777403,128.930524 C243.763139,158.629192 240.960105,193.361362 217.701949,217.684932 C193.388888,240.91339 158.667426,243.756665 128.939183,231.730513 C110.724481,224.366128 98.8291648,235.668902 98.8291648,235.668902 L56,278.478788 C117.666764,334.751534 212.79915,333.817172 273.370822,275.725934 L273.390914,275.786216 C273.80283,275.38434 274.174559,274.982463 274.586474,274.57054 C274.988343,274.17871 275.400258,273.806974 275.832267,273.395051 L275.731801,273.344817 C333.811886,212.761946 334.756277,117.647843 278.474555,56 L235.67553,98.7998392 C235.67553,98.7998392 224.37297,110.725522 231.777403,128.930524" id="Fill-62"></path>
                <path d="M87.3400112,189.101066 C75.6845918,160.122193 79.5931765,126.07905 102.331293,102.325216 C126.10433,79.576197 160.126097,75.6875617 189.134025,87.3333712 C211.942475,96.5173832 221.216572,84.3088768 221.216572,84.3088768 L264,41.5137928 C202.376993,-14.7558649 107.244654,-13.8012904 46.6364729,44.2468904 L46.5962818,44.1966497 C46.2044186,44.5985758 45.8326509,45.0406946 45.4407876,45.4225243 C45.0288288,45.8144023 44.5967745,46.2062803 44.1848157,46.5780619 L44.2651978,46.6584472 C-13.8209922,107.24881 -14.7453876,202.374677 41.5221552,264 L84.3357264,221.204916 C84.3357264,221.204916 96.5035824,211.93047 87.3400112,189.101066" id="Fill-63"></path>
            </g>
        </g>
    </g>
</svg>