<?xml version="1.0" encoding="UTF-8"?>
<svg width="500px" height="500px" viewBox="0 0 500 500" version="1.1" xmlns="http://www.w3.org/2000/svg" xmlns:xlink="http://www.w3.org/1999/xlink">
    <!-- Generator: Sketch 42 (36781) - http://www.bohemiancoding.com/sketch -->
    <title>kik</title>
    <desc>Created with Sketch.</desc>
    <defs></defs>
    <g id="Website-Icons" stroke="none" stroke-width="1" fill="none" fill-rule="evenodd">
        <g id="kik">
            <g id="Kik-Logo" transform="translate(54.000000, 150.000000)">
                <path d="M47.4712388,149.559929 L43.8141892,153.216978 L43.8141892,177.65183 C43.8141892,189.748391 34.0087091,199.554592 21.9070946,199.554592 C9.80814034,199.554592 0,189.743699 0,177.65183 L0,21.9027623 C0,9.8062007 9.80548011,0 21.9070946,0 C34.0060489,0 43.8141892,9.81089322 43.8141892,21.9027623 L43.8141892,91.2543579 L74.3078112,60.7607359 C82.8667405,52.2018067 96.738645,52.196945 105.295779,60.7540787 C113.851031,69.3093313 113.852422,83.1787459 105.289121,91.7420462 L78.5708927,118.460275 L116.719106,163.923545 C124.493581,173.188804 123.284605,187.002621 114.01423,194.781389 C104.745893,202.558447 90.921547,201.34199 83.1554897,192.086763 L47.4712388,149.559929 Z" id="k" fill="#82BC23"></path>
                <path d="M263.886779,149.559929 L260.22973,153.216978 L260.22973,177.65183 C260.22973,189.748391 250.42425,199.554592 238.322635,199.554592 C226.223681,199.554592 216.415541,189.743699 216.415541,177.65183 L216.415541,21.9027623 C216.415541,9.8062007 226.221021,0 238.322635,0 C250.421589,0 260.22973,9.81089322 260.22973,21.9027623 L260.22973,91.2543579 L290.723352,60.7607359 C299.282281,52.2018067 313.154186,52.196945 321.711319,60.7540787 C330.266572,69.3093313 330.267962,83.1787459 321.704662,91.7420462 L294.986433,118.460275 L333.134646,163.923545 C340.909121,173.188804 339.700145,187.002621 330.429771,194.781389 C321.161434,202.558447 307.337088,201.34199 299.57103,192.086763 L263.886779,149.559929 Z" id="k" fill="#82BC23"></path>
                <rect id="i" fill="#82BC23" x="146.047297" y="53.2145578" width="43.8141892" height="146.340034" rx="21.9070946"></rect>
                <ellipse id="blue-dot" fill="#3DB4E7" cx="369.765203" cy="123.058665" rx="23.2347973" ry="23.281369"></ellipse>
            </g>
        </g>
    </g>
</svg>