<?xml version="1.0" encoding="UTF-8"?>
<svg width="500px" height="500px" viewBox="0 0 500 500" version="1.1" xmlns="http://www.w3.org/2000/svg" xmlns:xlink="http://www.w3.org/1999/xlink">
    <!-- Generator: Sketch 42 (36781) - http://www.bohemiancoding.com/sketch -->
    <title>para</title>
    <desc>Created with Sketch.</desc>
    <defs></defs>
    <g id="Website-Icons" stroke="none" stroke-width="1" fill="none" fill-rule="evenodd">
        <g id="para">
            <path d="M113.862065,316.76222 C114.124903,314.934756 114.575484,313.032189 114.888387,311.192208 C115.326452,308.638764 115.764516,306.08532 116.290194,303.519359 C117.028645,299.927014 117.879742,296.297118 118.780903,292.654706 C119.356645,290.226431 119.919871,287.810673 120.583226,285.369881 C121.684645,281.301894 122.96129,277.18384 124.262968,273.053269 C124.913806,270.975466 125.502065,268.922698 126.190452,266.819862 C128.293161,260.586455 130.583613,254.30298 133.111871,247.956921 C134.964258,243.350708 137.167097,238.782047 139.219742,234.175834 C144.814452,221.646436 150.884774,209.192138 157.868774,197.075797 C164.70258,185.247344 172.087096,173.819431 179.922194,162.992328 C179.947226,162.94226 179.984774,162.892193 180.009807,162.854642 C179.083613,163.042395 178.194968,163.255183 177.256258,163.455453 C175.378839,163.818442 173.538968,164.256533 171.674064,164.657074 C167.543742,165.558289 163.463484,166.522088 159.470839,167.56099 C157.43071,168.086699 155.428129,168.624925 153.438065,169.188184 C149.520516,170.302187 145.690581,171.491291 141.923225,172.717945 C140.208516,173.281205 138.468775,173.819431 136.791613,174.407724 C131.484774,176.27274 126.328129,178.250407 121.434323,180.36576 C79.8432258,198.377552 56,223.861924 56,250.272545 C56,275.05597 76.9645161,299.013282 113.862065,316.76222" id="Path" fill="#098D8F"></path>
            <path d="M129.970323,163.618172 C132.285806,162.767024 134.588774,161.94091 136.954322,161.127313 C140.533935,159.938209 144.226194,158.836723 147.930968,157.760272 C150.233935,157.08436 152.511871,156.383415 154.864903,155.75757 C159.057807,154.656085 163.363355,153.679768 167.693935,152.728485 C169.721548,152.26536 171.686581,151.764685 173.751742,151.351628 C180.210065,150.049872 186.806064,148.885802 193.564774,147.909486 C198.55871,147.196023 203.60271,146.732899 208.64671,146.219707 C235.769161,143.378374 263.467355,143.165587 290.602322,145.956852 C290.652387,145.969369 290.702452,145.969369 290.752516,145.969369 C290.151742,145.28094 289.525935,144.655096 288.925161,143.954151 C287.598452,142.439608 286.234194,141.000167 284.894968,139.523175 C282.091355,136.444022 279.287742,133.43997 276.421548,130.548571 C274.932129,129.034028 273.44271,127.544519 271.95329,126.092561 C269.037032,123.263745 266.108258,120.547582 263.179484,117.919037 C261.802709,116.717416 260.463484,115.453211 259.099226,114.289141 C254.831226,110.621695 250.55071,107.142002 246.270194,103.975231 C221.613419,85.6630327 197.970452,76 177.844517,76 C168.582581,76 160.221806,78.115353 153,82.2709578 C131.547355,94.6501538 121.296645,124.778288 124.375613,165.608356 C126.177935,164.894894 128.130452,164.294084 129.970323,163.618172" id="Path" fill="#C62575"></path>
            <path d="M279.162581,115.678515 C280.889807,117.318227 282.604516,118.920387 284.30671,120.6352 C287.335613,123.676803 290.314452,126.881124 293.280774,130.135513 C294.720129,131.712641 296.172,133.20215 297.611355,134.829344 C301.954451,139.760996 306.247484,144.8804 310.46542,150.237626 C313.531871,154.142893 316.398065,158.348565 319.351871,162.416551 C327.399742,173.493992 335.122194,184.959456 342.11871,197.075797 C348.914968,208.854182 355.122968,220.983041 360.655097,233.287136 C361.005549,232.561157 361.243355,231.722526 361.531226,230.883894 C362.194581,228.931261 362.782839,227.003661 363.396129,225.063544 C364.660258,221.10821 365.849291,217.165392 366.938193,213.247608 C367.488904,211.23239 368.027097,209.217172 368.540258,207.226988 C369.541548,203.259136 370.430194,199.316319 371.231226,195.436086 C371.60671,193.671205 372.007226,191.906325 372.332646,190.178995 C373.371484,184.646533 374.260129,179.20169 374.860903,173.907049 C380.042581,128.871308 369.892,95.476268 347,82.2709578 C325.547355,69.9293124 293.994194,76.2628545 260.513548,99.1311975 C262.078065,100.382886 263.592516,101.784776 265.144516,103.086532 C266.971871,104.613592 268.811742,106.153168 270.626581,107.755329 C273.505291,110.283739 276.333936,112.962352 279.162581,115.678515 Z" id="Path" fill="#4E495F"></path>
            <path d="M229.335871,392.78976 C226.507226,390.298901 223.703613,387.657838 220.925033,384.991743 C219.172774,383.31448 217.408,381.687285 215.680774,379.934922 C212.676903,376.905837 209.698065,373.701515 206.731742,370.47216 C205.304904,368.895032 203.840516,367.405523 202.413678,365.790846 C198.070581,360.846678 193.765032,355.727273 189.547097,350.382564 C186.455613,346.439747 183.614451,342.259108 180.673162,338.203639 C172.537678,327.001029 164.777677,315.485498 157.868774,303.469292 C151.047484,291.665872 144.852,279.549531 139.344904,267.30802 L139.269806,267.157818 C138.956904,268.07155 138.694065,268.985283 138.393678,269.899015 C137.767871,271.738997 137.204645,273.591495 136.603871,275.41896 C135.327226,279.449396 134.125677,283.429764 133.036774,287.385099 C132.486065,289.375283 131.947871,291.377984 131.447226,293.355651 C130.458452,297.285952 129.582323,301.191219 128.768774,305.046419 C128.405807,306.823816 128.00529,308.601213 127.679871,310.353576 C126.653548,315.861004 125.777419,321.318365 125.164129,326.675591 C119.982452,371.698814 130.133032,405.093854 153,418.311682 C174.465161,430.678361 206.005806,424.319785 239.486452,401.463959 C237.946968,400.224788 236.432516,398.835413 234.893032,397.546175 C233.028129,395.981565 231.175742,394.429471 229.335871,392.78976" id="Path" fill="#4E495F"></path>
            <path d="M370.05471,336.95195 C367.72671,337.815616 365.411226,338.654246 363.020645,339.44281 C359.503613,340.631914 355.886452,341.720883 352.231742,342.784817 C349.841162,343.485762 347.488129,344.199225 345.047484,344.850102 C341.01729,345.914038 336.861936,346.852804 332.694065,347.79157 C330.516258,348.279728 328.388516,348.817954 326.173161,349.268562 C319.727355,350.557801 313.168903,351.721871 306.435226,352.698187 C301.491355,353.41165 296.409807,353.862257 291.378323,354.387966 C264.431097,357.166714 236.369936,357.366985 209.42271,354.625787 C209.360129,354.625787 209.310065,354.625787 209.26,354.61327 C209.860775,355.314216 210.499097,355.952577 211.112387,356.653522 C212.401549,358.130514 213.728258,359.544922 215.042451,360.99688 C217.908645,364.138618 220.787355,367.192737 223.691097,370.159238 C225.117936,371.586162 226.519742,373.00057 227.946581,374.389944 C230.962968,377.331411 234.016903,380.135192 237.058323,382.863872 C238.309935,383.990392 239.574065,385.166978 240.838194,386.24343 C245.11871,389.923394 249.424258,393.428121 253.729806,396.632442 C289.788774,423.381019 324.108,431.516992 347,418.311682 C368.465162,405.907452 378.728387,375.779318 375.64942,334.974283 C373.834581,335.687745 371.894581,336.288555 370.05471,336.95195" id="Path" fill="#C62575"></path>
            <path d="M375.787097,227.391685 C377.063742,223.336215 378.327871,219.280745 379.416774,215.275343 C380.092645,212.784484 380.643355,210.343692 381.256645,207.877866 C382.14529,204.260487 382.996387,200.655625 383.722323,197.075797 C384.248,194.509836 384.686065,191.981426 385.12413,189.440499 C385.449549,187.588001 385.875097,185.672918 386.162968,183.820419 C423.035484,201.556841 444,225.514153 444,250.272545 C444,276.720716 420.156774,302.205087 378.59071,320.216879 C373.621807,322.369783 368.427613,324.34745 363.108258,326.237499 C361.493678,326.813276 359.804,327.326468 358.164387,327.864694 C354.359484,329.116383 350.479484,330.33052 346.524387,331.457039 C344.559355,332.007782 342.56929,332.533491 340.56671,333.0592 C336.649161,334.073068 332.644,335.011834 328.576258,335.900532 C326.611226,336.31359 324.65871,336.776714 322.656129,337.177254 C321.742451,337.352491 320.891355,337.577795 319.977678,337.75303 C320.015226,337.71548 320.040258,337.665413 320.065291,337.627862 C327.925419,326.725658 335.322452,315.297745 342.143742,303.469292 C349.10271,291.440569 355.185549,278.961237 360.792774,266.381771 C362.845419,261.775559 365.035742,257.231931 366.888129,252.600684 C369.416387,246.279659 371.706839,240.008701 373.809548,233.787811 C374.522968,231.634907 375.111226,229.532071 375.787097,227.391685" id="Path" fill="#098D8F"></path>
        </g>
    </g>
</svg>