<?xml version="1.0" encoding="UTF-8"?>
<svg width="500px" height="500px" viewBox="0 0 500 500" version="1.1" xmlns="http://www.w3.org/2000/svg" xmlns:xlink="http://www.w3.org/1999/xlink">
    <!-- Generator: Sketch 41.2 (35397) - http://www.bohemiancoding.com/sketch -->
    <title>Artboard</title>
    <desc>Created with Sketch.</desc>
    <defs>
        <polygon id="path-1" points="0.0778207403 0.122394519 621.980219 0.122394519 621.980219 167.805922 0.0778207403 167.805922"></polygon>
        <linearGradient x1="12.7279859%" y1="34.3800869%" x2="92.0995147%" y2="116.182125%" id="linearGradient-3">
            <stop stop-color="#B5121B" offset="0%"></stop>
            <stop stop-color="#BE3D2E" offset="69.9997%"></stop>
            <stop stop-color="#BE3D2E" offset="69.9997%"></stop>
            <stop stop-color="#F6E2DA" offset="100%"></stop>
        </linearGradient>
        <polygon id="path-4" points="0.287541552 0.236506371 597.578106 0.236506371 597.578106 148.03004 0.287541552 148.03004"></polygon>
    </defs>
    <g id="Website-Icons" stroke="none" stroke-width="1" fill="none" fill-rule="evenodd">
        <g id="Artboard">
            <g id="capitalOne" transform="translate(23.000000, 165.000000)">
                <g id="layer1" transform="translate(0.344729, 0.137056)">
                    <g id="g5061" transform="translate(311.031838, 84.427424) scale(1, -1) translate(-311.031838, -84.427424) translate(0.031838, 0.427424)">
                        <g id="g4210">
                            <g id="g4212-Clipped">
                                <mask id="mask-2" fill="white">
                                    <use xlink:href="#path-1"></use>
                                </mask>
                                <g id="path4216"></g>
                                <g id="g4212" mask="url(#mask-2)">
                                    <g transform="translate(239.614119, 16.008887)">
                                        <g id="g4218" transform="translate(0.185951, 0.142863)">
                                            <path d="M55.2855282,29.9569677 C55.1831325,29.8953888 55.0643535,29.8255993 54.9455745,29.7681256 L25.246138,16.1311143 L0.241689866,0.177397814 C22.1257012,10.071079 39.9302674,18.78655 56.7846014,27.7770736 C56.2521437,28.4790734 55.7565485,29.2015995 55.2855282,29.9569677" id="path4220" fill="#B5121B"></path>
                                        </g>
                                        <g id="g4222" transform="translate(114.935492, 61.808845)">
                                            <path d="M54.8743142,64.0355462 L27.2187711,37.8533533 L0.170429649,4.07409077 C0.477616782,2.85072273 0.727462316,1.60272311 0.903582939,0.297249819 C0.993691165,0.3424077 1.0715119,0.403986629 1.16571596,0.461460295 C44.5651141,27.166189 68.1079359,43.9320786 54.8743142,64.0355462" id="path4224" fill="#B5121B"></path>
                                        </g>
                                    </g>
                                </g>
                            </g>
                        </g>
                        <g id="g4226" transform="translate(124.108495, 11.491464)" fill="url(#linearGradient-3)">
                            <g id="g4228">
                                <g id="g4234">
                                    <g id="g4236">
                                        <path d="M2.46898697,120.836785 L0.703684918,120.450891 C0.335060359,120.397522 0.105693967,120.04447 0.167131393,119.679102 L0.167131393,119.679102 C0.22856882,119.309628 0.56852258,119.079733 0.937147139,119.133102 L0.937147139,119.133102 L2.67787422,119.477944 C65.1925036,130.636046 195.190002,146.100567 223.164511,118.299734 L223.164511,118.299734 C231.696121,109.822368 229.656399,98.88595 219.760877,85.9995329 L219.760877,85.9995329 C225.093646,82.5716392 228.89867,77.160904 230.614822,70.3995376 L230.614822,70.3995376 C262.136318,91.4184786 285.216311,111.640999 285.965848,125.750784 L285.965848,125.750784 L285.965848,127.138362 C285.822494,129.769835 284.835399,132.171414 282.91036,134.302044 L282.91036,134.302044 C273.907729,144.253199 248.923176,148.03004 216.73406,148.03004 L216.73406,148.03004 C150.340681,148.03004 53.2777387,131.962045 2.46898697,120.836785 M168.038756,41.0961781 C150.553664,28.6859714 129.824676,15.6476596 107.535178,1.95661111 L107.535178,1.95661111 L106.658671,1.44755863 C106.351484,1.24229554 106.281855,0.819453562 106.498933,0.527979967 L106.498933,0.527979967 C106.699629,0.220085324 107.117404,0.146190609 107.420495,0.363769491 L107.420495,0.363769491 L108.165936,0.757874634 C127.07228,10.6433453 148.78017,22.3884996 170.639607,34.4292328 L170.639607,34.4292328 C170.791152,34.4994328 170.877165,34.5523907 170.975465,34.6180748 L170.975465,34.6180748 C169.775387,36.5927058 168.792388,38.7602841 168.100193,41.1372308 L168.100193,41.1372308 C168.079714,41.124915 168.063331,41.1167044 168.038756,41.0961781" id="path4248"></path>
                                    </g>
                                </g>
                            </g>
                        </g>
                        <g id="g4274" transform="translate(389.785599, 37.564385)" fill="#005288">
                            <path d="M29.4769157,13.5359201 L30.8039641,12.6368677 C27.4576722,5.7933961 20.6299262,0.280029362 12.6061983,0.280029362 C6.05287284,0.280029362 0.666858451,4.65623856 0.388342117,12.8831834 C-0.148211408,27.6046526 13.6219638,41.2915958 24.8977795,41.2915958 C29.7267612,41.2915958 34.2116933,39.1650702 34.4082931,33.9472823 C34.8301634,22.2431806 18.4181789,18.6633922 7.60109599,18.4170765 C7.26114223,17.1978137 7.13417155,15.9621298 7.19151315,14.0860252 C7.3717296,9.23360558 10.3084386,5.14886998 16.3661688,5.14886998 C21.5965418,5.14886998 26.8351063,9.37728975 29.4769157,13.5359201 M28.0065133,34.6862294 C27.9123092,37.4531759 26.532015,39.3128596 23.6690309,39.3128596 C16.7962308,39.3128596 9.49336873,25.822969 8.23185357,20.3793917 C19.5076693,20.3793917 28.2768379,27.1120212 28.0065133,34.6862294" id="path4276"></path>
                        </g>
                        <g id="g4278" transform="translate(350.929301, 37.788958)" fill="#005288">
                            <path d="M1.21733059,34.8865518 C2.38054587,35.0425517 4.14994375,35.2108675 4.95272613,35.2108675 C6.18966632,35.2108675 7.34878576,34.9727623 7.41431902,33.7534995 C7.43070233,33.0309734 6.1159414,27.804975 5.84561673,26.598028 L3.23247819,15.0540315 C2.17985028,10.312454 1.03711414,5.36971865 0.0172528632,1.45740405 L6.72621984,1.45740405 L10.5066695,19.7627669 C22.0200432,31.787079 26.4558254,35.7076041 29.1713597,35.7076041 C30.4001082,35.7076041 31.239753,35.0671833 31.3011905,33.5974995 C31.3667237,31.4709739 30.0601544,26.6719227 29.6096133,25.2925547 L25.7472471,11.9545587 C24.8707398,8.94950703 24.2235989,6.24413943 24.2850363,4.30645581 C24.4079112,1.38350933 26.1773091,0.0862465713 28.7945435,0.0862465713 C33.7095376,0.0862465713 37.2688125,5.20140291 40.3775463,10.2385593 L39.3781641,11.708243 C38.1207448,9.68434891 35.298719,5.45182388 33.0009593,5.45182388 C32.2719018,5.45182388 31.5878984,5.93213953 31.5633235,7.15140231 C31.4977902,8.7155071 32.1531228,11.0390853 32.6118556,12.5949796 L36.8879004,28.2319222 C38.0306366,32.538342 38.5835734,35.313499 38.5549026,36.7790775 C38.4484111,39.6979187 36.7445464,41.0690762 34.1477912,41.0690762 C29.7283923,41.0690762 23.8549744,37.8300245 11.4323267,23.4985552 L11.2562061,23.4985552 L12.8208126,30.4898163 C13.668649,34.3159204 14.504198,38.3062349 15.3110762,41.0690762 C11.0227439,39.5049714 4.96501361,37.8177088 1.159989,37.0869721 L1.21733059,34.8865518 Z" id="path4280"></path>
                        </g>
                        <g id="g4282" transform="translate(293.923137, 37.396516)" fill="#005288">
                            <path d="M0.39490264,23.8072493 C-0.23175911,42.1126121 14.0708738,60.8326064 34.8612989,60.8326064 C48.7625406,60.8326064 57.8511839,51.546504 58.3549708,37.3340873 C59.0225909,18.0229353 45.6619985,0.296414338 23.900862,0.296414338 C10.0037162,0.296414338 0.902785366,9.56609573 0.39490264,23.8072493 M9.44668348,23.2366179 C9.80302056,12.5095685 16.5693291,3.72430803 25.3999352,3.72430803 C42.5164023,3.72430803 49.7905936,24.7843016 49.2868067,38.8571394 C48.9304696,49.6088204 41.9757529,58.3817651 33.1574343,58.3817651 C18.4493144,58.3817651 8.93470493,37.3956662 9.44668348,23.2366179" id="path4284"></path>
                        </g>
                        <g id="g4286" transform="translate(266.477817, 49.788609)" fill="#005288">
                            <polygon id="path4288" points="17.1894304 0.395812176 0.122113269 0.371180605 8.69877801 48.3083239 25.3319373 47.8444293"></polygon>
                        </g>
                        <g id="g4290" transform="translate(215.463476, 49.741031)" fill="#005288">
                            <path d="M51.1896998,27.5003501 C51.1241665,25.8089822 50.825171,24.3228774 50.3664383,21.7694045 L47.3232377,4.55193605 C47.0611047,3.04119966 47.6222332,1.85067371 49.0230065,1.0008845 L48.9288025,0.409726781 L31.4355192,0.372779424 L31.2921652,4.75719914 C28.7445599,3.20130488 25.6481137,1.90814738 22.8875253,1.16098971 C20.0982661,0.417937305 17.8537521,0.12646371 14.4705979,0.12646371 C8.81835461,0.12646371 5.59903346,0.688884591 3.35861531,2.66762083 C1.0813347,4.70383074 -0.0245389822,6.03393559 0.106527528,8.81319791 C0.167964954,10.4306711 0.999418127,12.4956178 2.20768752,13.9160385 C3.43234022,15.3939327 5.07886325,16.3340377 6.88102776,17.1838269 C8.69138393,18.0377214 10.8171189,18.6658265 13.8767027,19.1789842 C16.9936282,19.6634051 21.3065355,20.1929839 27.0857494,20.6732996 C30.0879917,20.9196153 31.943402,21.6092993 32.7994301,21.9377202 C34.0240828,22.4180359 34.5032947,22.9476147 34.6835112,23.9287722 C34.9906983,25.665298 34.4459531,26.6957188 32.1154268,27.1678239 C25.7791802,28.4199288 13.9913859,26.3590873 7.89679321,24.8401404 L11.1939351,33.7937166 C19.2586213,34.9719268 26.7580832,35.7314002 34.687607,35.7314002 C47.2740878,35.7314002 51.2879997,32.1105592 51.1896998,27.5003501 M33.1311922,16.2190904 C32.3775598,15.9645641 31.4068484,15.6854063 30.223154,15.4144591 C29.0435554,15.131196 26.8727664,14.7781435 23.7107868,14.2608805 C21.5522852,13.9160385 20.0245412,13.4685649 19.1971839,12.8486704 C18.3944015,12.2575126 17.9151896,11.5226708 17.7431648,10.6359342 C17.57114,9.69172395 17.9151896,8.92403998 18.7015886,8.34930331 C19.5453293,7.77046138 20.9501984,7.48719831 22.9243877,7.48719831 C24.3784068,7.48719831 25.8119468,7.70477719 27.2168159,8.13993495 C28.6503559,8.62435586 29.8299545,9.23193462 30.7597075,10.0324607 C31.4068484,10.6071974 31.8983478,11.3666708 32.2546849,12.2575126 C32.4635722,12.8363546 32.754376,14.1582489 33.1311922,16.2190904" id="path4292"></path>
                        </g>
                        <g id="g4294" transform="translate(190.122622, 49.834617)" fill="#005288">
                            <path d="M8.19165687,34.8865518 L9.39583043,41.8860233 L26.9136887,45.7039169 L25.0541825,34.8865518 L33.6390389,34.8865518 L32.0129951,27.9650802 L23.6902717,27.9856065 L18.6278277,0.348983333 C18.6278277,0.348983333 1.74482291,0.459825405 1.68748132,0.348983333 L6.72125446,27.9199223 L0.360432902,27.9199223 L1.65471469,34.8865518 L8.19165687,34.8865518 Z" id="path4296"></path>
                        </g>
                        <g id="g4298" transform="translate(165.881447, 49.794789)" fill="#005288">
                            <path d="M7.36922892,42.6849145 C7.86482416,45.5093347 12.3169897,47.7959656 17.2893254,47.7959656 C22.2698528,47.7959656 25.9028526,45.5093347 25.4195448,42.6849145 C24.8870871,39.856389 20.4594966,37.5574424 15.4666817,37.5574424 C10.4779627,37.5574424 6.86544202,39.856389 7.36922892,42.6849145 L7.36922892,42.6849145 Z M0.365362292,0.363769491 L6.43947586,34.7289169 L23.1914142,34.7289169 L17.1213964,0.363769491 L0.365362292,0.363769491 Z" id="path4300"></path>
                        </g>
                        <g id="g4302" transform="translate(113.569540, 38.303383)" fill="#005288">
                            <path d="M0,0 L8.15889024,46.0487228 L22.8670102,46.0487228 L21.7324657,40.1699878 C23.0062683,41.9270399 25.0418951,43.3679868 27.859825,44.5420917 C30.70233,45.7038808 33.9093636,46.5659858 37.3703386,46.5659858 C41.2081299,46.5659858 43.5837104,46.3607227 46.4589819,44.8705126 C49.3137744,43.3679868 51.3002512,41.1880927 52.3897415,38.3513567 C53.499711,35.5474629 53.7208858,32.4069375 53.1310865,28.9954649 C52.1317043,23.3219929 49.3670201,18.8390469 44.8452255,15.5589426 C40.3480059,12.2706278 36.3054233,11.4044176 30.5384968,11.3838913 C28.4905826,11.3838913 26.786718,11.5973649 25.3695613,11.9463122 C23.9769797,12.3075752 22.8670102,12.7468382 22.0314612,13.2887328 C21.224583,13.8306274 20.3685548,14.5859956 19.2626811,15.784732 L16.5266677,0 L0,0 Z M30.5139218,38.16662 C28.3185578,38.16662 26.3238894,37.493357 24.5626831,36.1632521 C22.8096686,34.8249368 21.6996991,32.8831479 21.2532538,30.2804118 C20.7207961,27.2794654 21.0279832,25.1283081 22.2198693,23.8023085 C23.4117553,22.4763089 25.1360991,21.8112565 27.3929006,21.8112565 C28.9165488,21.8112565 30.5057302,22.0863091 31.6607538,22.6692563 C33.0942938,23.4287297 34.0813884,24.2292558 34.9456082,25.4977817 C35.858978,26.8278866 36.4692564,28.2975703 36.7846352,30.0217803 C37.2597513,32.7353585 36.8583601,34.7674631 35.6009408,36.113989 C34.3803839,37.4851465 32.7010942,38.16662 30.5139218,38.16662 L30.5139218,38.16662 Z" id="path4304"></path>
                        </g>
                        <g id="g4306" transform="translate(13.109913, 11.491464)">
                            <g id="g4308-Clipped">
                                <mask id="mask-5" fill="white">
                                    <use xlink:href="#path-4"></use>
                                </mask>
                                <g id="path4312"></g>
                                <g id="g4308" mask="url(#mask-5)">
                                    <g transform="translate(-0.411214, 37.771679)">
                                        <g id="g4314" transform="translate(51.628708, 0.532078)">
                                            <path d="M51.1896998,27.5003501 C51.1200707,25.8254033 50.825171,24.347509 50.3787257,21.7858255 L47.3191419,4.58477814 C47.0529131,3.06583124 47.6181374,1.85477897 49.0393898,1.04193711 L48.94109,0.3645689 L31.4355192,0.389200472 L31.2880694,4.77362019 C28.7281766,3.22183119 25.6563053,1.92456843 22.8752378,1.16509497 C20.102362,0.454884662 17.857848,0.138779495 14.491077,0.138779495 C8.84292958,0.138779495 5.5908418,0.717621424 3.36271113,2.68404188 C1.08543052,4.71614652 -0.0122514969,6.05856717 0.102431699,8.84193474 C0.188444096,10.4470921 1.01580144,12.5079336 2.219975,13.9447753 C3.42824439,15.4062485 5.07886325,16.3627746 6.88102776,17.200248 C8.68319227,18.0705635 10.8048314,18.6945633 13.8971819,19.174879 C16.997724,19.6880367 21.3024397,20.1929839 27.0816536,20.6732996 C30.104375,20.9278258 31.9597853,21.6257203 32.8321967,21.9787728 C34.0363703,22.4467727 34.5073906,22.9558252 34.687607,23.9492986 C35.0111775,25.7186664 34.4459531,26.7244556 32.1031393,27.1883502 C25.8037551,28.4363498 13.9872901,26.3878241 7.88860156,24.8565614 L11.2062226,33.8060324 C19.2299505,34.9719268 26.7662748,35.7355055 34.6957987,35.7355055 C47.2863753,35.7355055 51.3207663,32.1351908 51.1896998,27.5003501 M33.1270964,16.2396167 C32.3857514,15.9645641 31.4232317,15.6977221 30.2354415,15.4390906 C29.0476513,15.1681433 26.8727664,14.7822487 23.7271701,14.2896173 C21.5645727,13.9447753 20.053212,13.484986 19.2012797,12.8733019 C18.382114,12.2616179 17.9029021,11.5349866 17.7636439,10.6523552 C17.5957149,9.71635553 17.9029021,8.96098733 18.7138761,8.36572436 C19.5453293,7.78277717 20.9461026,7.48309305 22.9039086,7.48309305 C24.374311,7.48309305 25.8201384,7.7253035 27.2168159,8.16867179 C28.6339726,8.62846112 29.8258587,9.26477672 30.7474201,10.052987 C31.4232317,10.6359342 31.9106353,11.3707761 32.2669724,12.2616179 C32.4717638,12.8527756 32.7666635,14.1705647 33.1270964,16.2396167" id="path4316" fill="#005288"></path>
                                        </g>
                                        <g id="g4318" transform="translate(0.293678, 0.129726)">
                                            <path d="M49.1499412,13.123759 C43.6861061,12.0399698 40.6183306,11.6212331 35.236412,11.6212331 C27.2290674,11.6212331 20.8641501,15.6074424 21.2081996,22.9107034 C21.4539493,27.7713335 27.2003966,38.0344882 41.8061208,38.0344882 C46.4057362,38.0344882 50.0018735,37.2175411 54.8349511,34.4546999 L56.9524944,46.384591 C50.3827856,48.8846955 46.0248241,49.2500638 40.3889642,49.1966954 C21.2491579,48.987327 2.85479242,40.2595402 0.577511809,22.5207035 C-1.74482291,4.49449845 20.2170092,-0.0336054336 29.9773683,0.00744718546 C35.6050366,0.027973495 41.4579754,0.249657638 46.9177147,0.824394305 L49.1499412,13.123759 Z" id="path4320" fill="#005288"></path>
                                        </g>
                                    </g>
                                </g>
                            </g>
                        </g>
                    </g>
                </g>
            </g>
        </g>
    </g>
</svg>