<svg xmlns="http://www.w3.org/2000/svg" xmlns:xlink="http://www.w3.org/1999/xlink" version="1.1" width="720pt" height="360pt" viewBox="0 0 720 360">
<defs>
<clipPath id="clip_0">
<path d="M90 43.199H648V320.398H90Z"/>
</clipPath>
<clipPath id="clip_1">
<path d="M0 0H720V360H0Z"/>
</clipPath>
<clipPath id="clip_2">
<path d="M90 43.199H648V320.398H90Z"/>
</clipPath>
<clipPath id="clip_3">
<path d="M0 0H720V360H0Z"/>
</clipPath>
<clipPath id="clip_4">
<path d="M90 43.199H648V320.398H90Z"/>
</clipPath>
<clipPath id="clip_5">
<path d="M0 0H720V360H0Z"/>
</clipPath>
<clipPath id="clip_6">
<path d="M90 43.199H648V320.398H90Z"/>
</clipPath>
<clipPath id="clip_7">
<path d="M0 0H720V360H0Z"/>
</clipPath>
<clipPath id="clip_8">
<path d="M90 43.199H648V320.398H90Z"/>
</clipPath>
<clipPath id="clip_9">
<path d="M0 0H720V360H0Z"/>
</clipPath>
<clipPath id="clip_10">
<path d="M90 43.199H648V320.398H90Z"/>
</clipPath>
<clipPath id="clip_11">
<path d="M0 0H720V360H0Z"/>
</clipPath>
<clipPath id="clip_12">
<path d="M90 43.199H648V320.398H90Z"/>
</clipPath>
<clipPath id="clip_13">
<path d="M0 0H720V360H0Z"/>
</clipPath>
<clipPath id="clip_14">
<path d="M90 43.199H648V320.398H90Z"/>
</clipPath>
<clipPath id="clip_15">
<path d="M0 0H720V360H0Z"/>
</clipPath>
<clipPath id="clip_16">
<path d="M90 43.199H648V320.398H90Z"/>
</clipPath>
<clipPath id="clip_17">
<path d="M0 0H720V360H0Z"/>
</clipPath>
<clipPath id="clip_18">
<path d="M90 43.199H648V320.398H90Z"/>
</clipPath>
<clipPath id="clip_19">
<path d="M0 0H720V360H0Z"/>
</clipPath>
<clipPath id="clip_20">
<path d="M90 43.199H648V320.398H90Z"/>
</clipPath>
<clipPath id="clip_21">
<path d="M0 0H720V360H0Z"/>
</clipPath>
<clipPath id="clip_22">
<path d="M90 43.199H648V320.398H90Z"/>
</clipPath>
<clipPath id="clip_23">
<path d="M0 0H720V360H0Z"/>
</clipPath>
<clipPath id="clip_24">
<path d="M90 43.199H648V320.398H90Z"/>
</clipPath>
<clipPath id="clip_25">
<path d="M0 0H720V360H0Z"/>
</clipPath>
<clipPath id="clip_26">
<path d="M90 43.199H648V320.398H90Z"/>
</clipPath>
<clipPath id="clip_27">
<path d="M0 0H720V360H0Z"/>
</clipPath>
<clipPath id="clip_28">
<path d="M90 43.199H648V320.398H90Z"/>
</clipPath>
<clipPath id="clip_29">
<path d="M0 0H720V360H0Z"/>
</clipPath>
<clipPath id="clip_30">
<path d="M90 43.199H648V320.398H90Z"/>
</clipPath>
<clipPath id="clip_31">
<path d="M0 0H720V360H0Z"/>
</clipPath>
<clipPath id="clip_32">
<path d="M90 43.199H648V320.398H90Z"/>
</clipPath>
<clipPath id="clip_33">
<path d="M0 0H720V360H0Z"/>
</clipPath>
<clipPath id="clip_34">
<path d="M0 0H720V360H0Z"/>
</clipPath>
<clipPath id="clip_35">
<path d="M0 0H720V360H0Z"/>
</clipPath>
<clipPath id="clip_36">
<path d="M0 0H720V360H0Z"/>
</clipPath>
<clipPath id="clip_37">
<path d="M0 0H720V360H0Z"/>
</clipPath>
<clipPath id="clip_38">
<path d="M0 0H720V360H0Z"/>
</clipPath>
</defs>
<g>
<path d="M0 0H720V360H0Z" fill="#ffffff"/>
<path d="M90 43.199H648V320.398H90Z" fill="#ffffff"/>
<g clip-path="url(#clip_0)">
<g clip-path="url(#clip_1)">
<path stroke-width="1" stroke-linecap="round" stroke-linejoin="round" fill="none" stroke="#cccccc" d="M90 320.398V43.199"/>
</g>
</g>
<path d="M89.996 330.953C89.438 330.953 89.02 331.23 88.738 331.777 88.457 332.328 88.316 333.152 88.316 334.258 88.316 335.355 88.457 336.18 88.738 336.73 89.02 337.281 89.438 337.555 89.996 337.555 90.559 337.555 90.98 337.281 91.262 336.73 91.543 336.18 91.684 335.355 91.684 334.258 91.684 333.152 91.543 332.328 91.262 331.777 90.98 331.23 90.559 330.953 89.996 330.953ZM89.996 330.094C90.895 330.094 91.582 330.449 92.059 331.16 92.531 331.871 92.77 332.902 92.77 334.258 92.77 335.605 92.531 336.637 92.059 337.348 91.582 338.059 90.895 338.414 89.996 338.414 89.098 338.414 88.41 338.059 87.938 337.348 87.465 336.637 87.227 335.605 87.227 334.258 87.227 332.902 87.465 331.871 87.938 331.16 88.41 330.449 89.098 330.094 89.996 330.094ZM89.996 330.094" fill="#262626"/>
<g clip-path="url(#clip_2)">
<g clip-path="url(#clip_3)">
<path stroke-width="1" stroke-linecap="round" stroke-linejoin="round" fill="none" stroke="#cccccc" d="M158.113 320.398V43.199"/>
</g>
</g>
<path d="M146.227 337.344H150.016V338.258H144.922V337.344C145.336 336.918 145.895 336.348 146.605 335.629 147.316 334.91 147.766 334.449 147.945 334.238 148.293 333.852 148.535 333.52 148.676 333.25 148.812 332.98 148.883 332.715 148.883 332.453 148.883 332.027 148.734 331.68 148.434 331.41 148.133 331.141 147.746 331.008 147.266 331.008 146.926 331.008 146.566 331.066 146.188 331.184 145.809 331.301 145.406 331.48 144.977 331.723V330.625C145.414 330.449 145.82 330.316 146.199 330.227 146.582 330.141 146.93 330.094 147.242 330.094 148.074 330.094 148.738 330.301 149.23 330.719 149.727 331.133 149.973 331.688 149.973 332.383 149.973 332.711 149.91 333.023 149.785 333.32 149.664 333.613 149.438 333.961 149.113 334.363 149.023 334.469 148.738 334.77 148.258 335.266 147.777 335.762 147.102 336.453 146.227 337.344ZM146.227 337.344" fill="#262626"/>
<path d="M154.613 330.953C154.055 330.953 153.633 331.23 153.352 331.777 153.07 332.328 152.93 333.152 152.93 334.258 152.93 335.355 153.07 336.18 153.352 336.73 153.633 337.281 154.055 337.555 154.613 337.555 155.176 337.555 155.598 337.281 155.879 336.73 156.16 336.18 156.301 335.355 156.301 334.258 156.301 333.152 156.16 332.328 155.879 331.777 155.598 331.23 155.176 330.953 154.613 330.953ZM154.613 330.094C155.512 330.094 156.199 330.449 156.672 331.16 157.148 331.871 157.383 332.902 157.383 334.258 157.383 335.605 157.148 336.637 156.672 337.348 156.199 338.059 155.512 338.414 154.613 338.414 153.715 338.414 153.027 338.059 152.555 337.348 152.078 336.637 151.84 335.605 151.84 334.258 151.84 332.902 152.078 331.871 152.555 331.16 153.027 330.449 153.715 330.094 154.613 330.094ZM154.613 330.094" fill="#262626"/>
<path d="M161.609 330.953C161.051 330.953 160.633 331.23 160.352 331.777 160.07 332.328 159.93 333.152 159.93 334.258 159.93 335.355 160.07 336.18 160.352 336.73 160.633 337.281 161.051 337.555 161.609 337.555 162.172 337.555 162.594 337.281 162.875 336.73 163.156 336.18 163.297 335.355 163.297 334.258 163.297 333.152 163.156 332.328 162.875 331.777 162.594 331.23 162.172 330.953 161.609 330.953ZM161.609 330.094C162.512 330.094 163.195 330.449 163.672 331.16 164.145 331.871 164.383 332.902 164.383 334.258 164.383 335.605 164.145 336.637 163.672 337.348 163.195 338.059 162.512 338.414 161.609 338.414 160.711 338.414 160.027 338.059 159.551 337.348 159.078 336.637 158.84 335.605 158.84 334.258 158.84 332.902 159.078 331.871 159.551 331.16 160.027 330.449 160.711 330.094 161.609 330.094ZM161.609 330.094" fill="#262626"/>
<path d="M168.609 330.953C168.051 330.953 167.633 331.23 167.348 331.777 167.07 332.328 166.93 333.152 166.93 334.258 166.93 335.355 167.07 336.18 167.348 336.73 167.633 337.281 168.051 337.555 168.609 337.555 169.172 337.555 169.594 337.281 169.875 336.73 170.156 336.18 170.297 335.355 170.297 334.258 170.297 333.152 170.156 332.328 169.875 331.777 169.594 331.23 169.172 330.953 168.609 330.953ZM168.609 330.094C169.508 330.094 170.195 330.449 170.672 331.16 171.145 331.871 171.383 332.902 171.383 334.258 171.383 335.605 171.145 336.637 170.672 337.348 170.195 338.059 169.508 338.414 168.609 338.414 167.711 338.414 167.023 338.059 166.551 337.348 166.074 336.637 165.84 335.605 165.84 334.258 165.84 332.902 166.074 331.871 166.551 331.16 167.023 330.449 167.711 330.094 168.609 330.094ZM168.609 330.094" fill="#262626"/>
<g clip-path="url(#clip_4)">
<g clip-path="url(#clip_5)">
<path stroke-width="1" stroke-linecap="round" stroke-linejoin="round" fill="none" stroke="#cccccc" d="M226.23 320.398V43.199"/>
</g>
</g>
<path d="M216.391 331.184 213.652 335.465H216.391ZM216.105 330.238H217.469V335.465H218.613V336.367H217.469V338.258H216.391V336.367H212.77V335.32ZM216.105 330.238" fill="#262626"/>
<path d="M222.727 330.953C222.168 330.953 221.75 331.23 221.469 331.777 221.188 332.328 221.047 333.152 221.047 334.258 221.047 335.355 221.188 336.18 221.469 336.73 221.75 337.281 222.168 337.555 222.727 337.555 223.289 337.555 223.711 337.281 223.992 336.73 224.273 336.18 224.414 335.355 224.414 334.258 224.414 333.152 224.273 332.328 223.992 331.777 223.711 331.23 223.289 330.953 222.727 330.953ZM222.727 330.094C223.625 330.094 224.312 330.449 224.789 331.16 225.262 331.871 225.5 332.902 225.5 334.258 225.5 335.605 225.262 336.637 224.789 337.348 224.312 338.059 223.625 338.414 222.727 338.414 221.828 338.414 221.145 338.059 220.668 337.348 220.195 336.637 219.957 335.605 219.957 334.258 219.957 332.902 220.195 331.871 220.668 331.16 221.145 330.449 221.828 330.094 222.727 330.094ZM222.727 330.094" fill="#262626"/>
<path d="M229.727 330.953C229.168 330.953 228.746 331.23 228.465 331.777 228.184 332.328 228.047 333.152 228.047 334.258 228.047 335.355 228.184 336.18 228.465 336.73 228.746 337.281 229.168 337.555 229.727 337.555 230.289 337.555 230.711 337.281 230.992 336.73 231.273 336.18 231.414 335.355 231.414 334.258 231.414 333.152 231.273 332.328 230.992 331.777 230.711 331.23 230.289 330.953 229.727 330.953ZM229.727 330.094C230.625 330.094 231.312 330.449 231.785 331.16 232.262 331.871 232.5 332.902 232.5 334.258 232.5 335.605 232.262 336.637 231.785 337.348 231.312 338.059 230.625 338.414 229.727 338.414 228.828 338.414 228.141 338.059 227.668 337.348 227.191 336.637 226.957 335.605 226.957 334.258 226.957 332.902 227.191 331.871 227.668 331.16 228.141 330.449 228.828 330.094 229.727 330.094ZM229.727 330.094" fill="#262626"/>
<path d="M236.723 330.953C236.168 330.953 235.746 331.23 235.465 331.777 235.184 332.328 235.043 333.152 235.043 334.258 235.043 335.355 235.184 336.18 235.465 336.73 235.746 337.281 236.168 337.555 236.723 337.555 237.289 337.555 237.707 337.281 237.988 336.73 238.27 336.18 238.414 335.355 238.414 334.258 238.414 333.152 238.27 332.328 237.988 331.777 237.707 331.23 237.289 330.953 236.723 330.953ZM236.723 330.094C237.625 330.094 238.312 330.449 238.785 331.16 239.258 331.871 239.496 332.902 239.496 334.258 239.496 335.605 239.258 336.637 238.785 337.348 238.312 338.059 237.625 338.414 236.723 338.414 235.828 338.414 235.141 338.059 234.664 337.348 234.191 336.637 233.953 335.605 233.953 334.258 233.953 332.902 234.191 331.871 234.664 331.16 235.141 330.449 235.828 330.094 236.723 330.094ZM236.723 330.094" fill="#262626"/>
<g clip-path="url(#clip_6)">
<g clip-path="url(#clip_7)">
<path stroke-width="1" stroke-linecap="round" stroke-linejoin="round" fill="none" stroke="#cccccc" d="M294.344 320.398V43.199"/>
</g>
</g>
<path d="M283.98 333.816C283.492 333.816 283.105 333.984 282.82 334.316 282.539 334.648 282.395 335.105 282.395 335.684 282.395 336.262 282.539 336.719 282.82 337.055 283.105 337.387 283.492 337.555 283.98 337.555 284.469 337.555 284.852 337.387 285.137 337.055 285.422 336.719 285.562 336.262 285.562 335.684 285.562 335.105 285.422 334.648 285.137 334.316 284.852 333.984 284.469 333.816 283.98 333.816ZM286.133 330.414V331.402C285.859 331.277 285.586 331.176 285.309 331.109 285.031 331.043 284.758 331.008 284.484 331.008 283.766 331.008 283.219 331.25 282.844 331.73 282.465 332.215 282.25 332.945 282.195 333.922 282.406 333.613 282.672 333.371 282.988 333.207 283.309 333.039 283.66 332.957 284.043 332.957 284.848 332.957 285.484 333.203 285.953 333.691 286.422 334.18 286.652 334.844 286.652 335.684 286.652 336.508 286.41 337.172 285.922 337.668 285.438 338.168 284.789 338.414 283.98 338.414 283.051 338.414 282.344 338.059 281.852 337.348 281.363 336.637 281.117 335.605 281.117 334.258 281.117 332.988 281.418 331.98 282.02 331.227 282.621 330.473 283.426 330.094 284.441 330.094 284.715 330.094 284.988 330.121 285.266 330.176 285.543 330.23 285.832 330.309 286.133 330.414ZM286.133 330.414" fill="#262626"/>
<path d="M290.844 330.953C290.285 330.953 289.863 331.23 289.582 331.777 289.301 332.328 289.16 333.152 289.16 334.258 289.16 335.355 289.301 336.18 289.582 336.73 289.863 337.281 290.285 337.555 290.844 337.555 291.406 337.555 291.828 337.281 292.109 336.73 292.391 336.18 292.531 335.355 292.531 334.258 292.531 333.152 292.391 332.328 292.109 331.777 291.828 331.23 291.406 330.953 290.844 330.953ZM290.844 330.094C291.742 330.094 292.43 330.449 292.902 331.16 293.379 331.871 293.613 332.902 293.613 334.258 293.613 335.605 293.379 336.637 292.902 337.348 292.43 338.059 291.742 338.414 290.844 338.414 289.945 338.414 289.258 338.059 288.785 337.348 288.309 336.637 288.07 335.605 288.07 334.258 288.07 332.902 288.309 331.871 288.785 331.16 289.258 330.449 289.945 330.094 290.844 330.094ZM290.844 330.094" fill="#262626"/>
<path d="M297.84 330.953C297.281 330.953 296.863 331.23 296.582 331.777 296.301 332.328 296.16 333.152 296.16 334.258 296.16 335.355 296.301 336.18 296.582 336.73 296.863 337.281 297.281 337.555 297.84 337.555 298.402 337.555 298.824 337.281 299.105 336.73 299.387 336.18 299.527 335.355 299.527 334.258 299.527 333.152 299.387 332.328 299.105 331.777 298.824 331.23 298.402 330.953 297.84 330.953ZM297.84 330.094C298.742 330.094 299.426 330.449 299.902 331.16 300.375 331.871 300.613 332.902 300.613 334.258 300.613 335.605 300.375 336.637 299.902 337.348 299.426 338.059 298.742 338.414 297.84 338.414 296.941 338.414 296.258 338.059 295.781 337.348 295.309 336.637 295.07 335.605 295.07 334.258 295.07 332.902 295.309 331.871 295.781 331.16 296.258 330.449 296.941 330.094 297.84 330.094ZM297.84 330.094" fill="#262626"/>
<path d="M304.84 330.953C304.281 330.953 303.863 331.23 303.578 331.777 303.301 332.328 303.16 333.152 303.16 334.258 303.16 335.355 303.301 336.18 303.578 336.73 303.863 337.281 304.281 337.555 304.84 337.555 305.402 337.555 305.824 337.281 306.105 336.73 306.387 336.18 306.527 335.355 306.527 334.258 306.527 333.152 306.387 332.328 306.105 331.777 305.824 331.23 305.402 330.953 304.84 330.953ZM304.84 330.094C305.738 330.094 306.426 330.449 306.902 331.16 307.375 331.871 307.613 332.902 307.613 334.258 307.613 335.605 307.375 336.637 306.902 337.348 306.426 338.059 305.738 338.414 304.84 338.414 303.941 338.414 303.254 338.059 302.781 337.348 302.305 336.637 302.07 335.605 302.07 334.258 302.07 332.902 302.305 331.871 302.781 331.16 303.254 330.449 303.941 330.094 304.84 330.094ZM304.84 330.094" fill="#262626"/>
<g clip-path="url(#clip_8)">
<g clip-path="url(#clip_9)">
<path stroke-width="1" stroke-linecap="round" stroke-linejoin="round" fill="none" stroke="#cccccc" d="M362.461 320.398V43.199"/>
</g>
</g>
<path d="M351.961 334.449C351.445 334.449 351.039 334.586 350.742 334.863 350.449 335.141 350.301 335.52 350.301 336 350.301 336.484 350.449 336.863 350.742 337.141 351.039 337.418 351.445 337.555 351.961 337.555 352.477 337.555 352.883 337.418 353.18 337.141 353.477 336.859 353.625 336.48 353.625 336 353.625 335.52 353.477 335.141 353.18 334.863 352.887 334.586 352.48 334.449 351.961 334.449ZM350.875 333.988C350.41 333.875 350.047 333.656 349.785 333.34 349.527 333.02 349.398 332.629 349.398 332.172 349.398 331.531 349.625 331.023 350.082 330.652 350.539 330.281 351.164 330.094 351.961 330.094 352.758 330.094 353.387 330.281 353.84 330.652 354.293 331.023 354.523 331.531 354.523 332.172 354.523 332.629 354.391 333.02 354.133 333.34 353.871 333.656 353.512 333.875 353.051 333.988 353.574 334.109 353.98 334.348 354.27 334.703 354.562 335.059 354.711 335.492 354.711 336 354.711 336.781 354.473 337.375 353.996 337.793 353.523 338.207 352.844 338.414 351.961 338.414 351.074 338.414 350.395 338.207 349.922 337.793 349.445 337.375 349.211 336.781 349.211 336 349.211 335.492 349.355 335.059 349.648 334.703 349.945 334.348 350.352 334.109 350.875 333.988ZM350.477 332.273C350.477 332.691 350.605 333.016 350.867 333.246 351.125 333.48 351.492 333.594 351.961 333.594 352.426 333.594 352.789 333.48 353.051 333.246 353.316 333.016 353.449 332.691 353.449 332.273 353.449 331.859 353.316 331.535 353.051 331.301 352.789 331.07 352.426 330.953 351.961 330.953 351.492 330.953 351.125 331.07 350.867 331.301 350.605 331.535 350.477 331.859 350.477 332.273ZM350.477 332.273" fill="#262626"/>
<path d="M358.957 330.953C358.398 330.953 357.98 331.23 357.699 331.777 357.418 332.328 357.277 333.152 357.277 334.258 357.277 335.355 357.418 336.18 357.699 336.73 357.98 337.281 358.398 337.555 358.957 337.555 359.52 337.555 359.941 337.281 360.223 336.73 360.504 336.18 360.645 335.355 360.645 334.258 360.645 333.152 360.504 332.328 360.223 331.777 359.941 331.23 359.52 330.953 358.957 330.953ZM358.957 330.094C359.855 330.094 360.543 330.449 361.02 331.16 361.492 331.871 361.73 332.902 361.73 334.258 361.73 335.605 361.492 336.637 361.02 337.348 360.543 338.059 359.855 338.414 358.957 338.414 358.059 338.414 357.375 338.059 356.898 337.348 356.426 336.637 356.188 335.605 356.188 334.258 356.188 332.902 356.426 331.871 356.898 331.16 357.375 330.449 358.059 330.094 358.957 330.094ZM358.957 330.094" fill="#262626"/>
<path d="M365.957 330.953C365.398 330.953 364.977 331.23 364.695 331.777 364.414 332.328 364.277 333.152 364.277 334.258 364.277 335.355 364.414 336.18 364.695 336.73 364.977 337.281 365.398 337.555 365.957 337.555 366.52 337.555 366.941 337.281 367.223 336.73 367.504 336.18 367.645 335.355 367.645 334.258 367.645 333.152 367.504 332.328 367.223 331.777 366.941 331.23 366.52 330.953 365.957 330.953ZM365.957 330.094C366.855 330.094 367.543 330.449 368.016 331.16 368.492 331.871 368.73 332.902 368.73 334.258 368.73 335.605 368.492 336.637 368.016 337.348 367.543 338.059 366.855 338.414 365.957 338.414 365.059 338.414 364.371 338.059 363.898 337.348 363.422 336.637 363.188 335.605 363.188 334.258 363.188 332.902 363.422 331.871 363.898 331.16 364.371 330.449 365.059 330.094 365.957 330.094ZM365.957 330.094" fill="#262626"/>
<path d="M372.953 330.953C372.398 330.953 371.977 331.23 371.695 331.777 371.414 332.328 371.273 333.152 371.273 334.258 371.273 335.355 371.414 336.18 371.695 336.73 371.977 337.281 372.398 337.555 372.953 337.555 373.52 337.555 373.938 337.281 374.219 336.73 374.5 336.18 374.645 335.355 374.645 334.258 374.645 333.152 374.5 332.328 374.219 331.777 373.938 331.23 373.52 330.953 372.953 330.953ZM372.953 330.094C373.855 330.094 374.543 330.449 375.016 331.16 375.488 331.871 375.727 332.902 375.727 334.258 375.727 335.605 375.488 336.637 375.016 337.348 374.543 338.059 373.855 338.414 372.953 338.414 372.059 338.414 371.371 338.059 370.895 337.348 370.422 336.637 370.184 335.605 370.184 334.258 370.184 332.902 370.422 331.871 370.895 331.16 371.371 330.449 372.059 330.094 372.953 330.094ZM372.953 330.094" fill="#262626"/>
<g clip-path="url(#clip_10)">
<g clip-path="url(#clip_11)">
<path stroke-width="1" stroke-linecap="round" stroke-linejoin="round" fill="none" stroke="#cccccc" d="M430.578 320.398V43.199"/>
</g>
</g>
<path d="M414.445 337.344H416.215V331.227L414.289 331.613V330.625L416.207 330.238H417.289V337.344H419.062V338.258H414.445ZM414.445 337.344" fill="#262626"/>
<path d="M423.574 330.953C423.016 330.953 422.598 331.23 422.312 331.777 422.031 332.328 421.895 333.152 421.895 334.258 421.895 335.355 422.031 336.18 422.312 336.73 422.598 337.281 423.016 337.555 423.574 337.555 424.137 337.555 424.559 337.281 424.84 336.73 425.121 336.18 425.262 335.355 425.262 334.258 425.262 333.152 425.121 332.328 424.84 331.777 424.559 331.23 424.137 330.953 423.574 330.953ZM423.574 330.094C424.473 330.094 425.16 330.449 425.633 331.16 426.109 331.871 426.348 332.902 426.348 334.258 426.348 335.605 426.109 336.637 425.633 337.348 425.16 338.059 424.473 338.414 423.574 338.414 422.676 338.414 421.988 338.059 421.516 337.348 421.039 336.637 420.805 335.605 420.805 334.258 420.805 332.902 421.039 331.871 421.516 331.16 421.988 330.449 422.676 330.094 423.574 330.094ZM423.574 330.094" fill="#262626"/>
<path d="M430.574 330.953C430.016 330.953 429.594 331.23 429.312 331.777 429.031 332.328 428.891 333.152 428.891 334.258 428.891 335.355 429.031 336.18 429.312 336.73 429.594 337.281 430.016 337.555 430.574 337.555 431.137 337.555 431.555 337.281 431.836 336.73 432.121 336.18 432.262 335.355 432.262 334.258 432.262 333.152 432.121 332.328 431.836 331.777 431.555 331.23 431.137 330.953 430.574 330.953ZM430.574 330.094C431.473 330.094 432.16 330.449 432.633 331.16 433.109 331.871 433.344 332.902 433.344 334.258 433.344 335.605 433.109 336.637 432.633 337.348 432.16 338.059 431.473 338.414 430.574 338.414 429.676 338.414 428.988 338.059 428.512 337.348 428.039 336.637 427.801 335.605 427.801 334.258 427.801 332.902 428.039 331.871 428.512 331.16 428.988 330.449 429.676 330.094 430.574 330.094ZM430.574 330.094" fill="#262626"/>
<path d="M437.57 330.953C437.012 330.953 436.594 331.23 436.312 331.777 436.031 332.328 435.891 333.152 435.891 334.258 435.891 335.355 436.031 336.18 436.312 336.73 436.594 337.281 437.012 337.555 437.57 337.555 438.133 337.555 438.555 337.281 438.836 336.73 439.117 336.18 439.258 335.355 439.258 334.258 439.258 333.152 439.117 332.328 438.836 331.777 438.555 331.23 438.133 330.953 437.57 330.953ZM437.57 330.094C438.469 330.094 439.156 330.449 439.633 331.16 440.105 331.871 440.344 332.902 440.344 334.258 440.344 335.605 440.105 336.637 439.633 337.348 439.156 338.059 438.469 338.414 437.57 338.414 436.672 338.414 435.984 338.059 435.512 337.348 435.039 336.637 434.801 335.605 434.801 334.258 434.801 332.902 435.039 331.871 435.512 331.16 435.984 330.449 436.672 330.094 437.57 330.094ZM437.57 330.094" fill="#262626"/>
<path d="M444.57 330.953C444.012 330.953 443.59 331.23 443.309 331.777 443.027 332.328 442.887 333.152 442.887 334.258 442.887 335.355 443.027 336.18 443.309 336.73 443.59 337.281 444.012 337.555 444.57 337.555 445.133 337.555 445.555 337.281 445.836 336.73 446.117 336.18 446.258 335.355 446.258 334.258 446.258 333.152 446.117 332.328 445.836 331.777 445.555 331.23 445.133 330.953 444.57 330.953ZM444.57 330.094C445.469 330.094 446.156 330.449 446.629 331.16 447.105 331.871 447.34 332.902 447.34 334.258 447.34 335.605 447.105 336.637 446.629 337.348 446.156 338.059 445.469 338.414 444.57 338.414 443.672 338.414 442.984 338.059 442.512 337.348 442.035 336.637 441.797 335.605 441.797 334.258 441.797 332.902 442.035 331.871 442.512 331.16 442.984 330.449 443.672 330.094 444.57 330.094ZM444.57 330.094" fill="#262626"/>
<g clip-path="url(#clip_12)">
<g clip-path="url(#clip_13)">
<path stroke-width="1" stroke-linecap="round" stroke-linejoin="round" fill="none" stroke="#cccccc" d="M498.691 320.398V43.199"/>
</g>
</g>
<path d="M482.559 337.344H484.332V331.227L482.402 331.613V330.625L484.32 330.238H485.406V337.344H487.176V338.258H482.559ZM482.559 337.344" fill="#262626"/>
<path d="M490.305 337.344H494.09V338.258H489V337.344C489.41 336.918 489.973 336.348 490.684 335.629 491.395 334.91 491.84 334.449 492.023 334.238 492.371 333.852 492.613 333.52 492.75 333.25 492.887 332.98 492.957 332.715 492.957 332.453 492.957 332.027 492.809 331.68 492.508 331.41 492.211 331.141 491.82 331.008 491.34 331.008 491 331.008 490.641 331.066 490.262 331.184 489.887 331.301 489.48 331.48 489.051 331.723V330.625C489.488 330.449 489.898 330.316 490.277 330.227 490.656 330.141 491.004 330.094 491.32 330.094 492.148 330.094 492.812 330.301 493.305 330.719 493.801 331.133 494.047 331.688 494.047 332.383 494.047 332.711 493.984 333.023 493.863 333.32 493.738 333.613 493.516 333.961 493.188 334.363 493.098 334.469 492.812 334.77 492.332 335.266 491.855 335.762 491.18 336.453 490.305 337.344ZM490.305 337.344" fill="#262626"/>
<path d="M498.688 330.953C498.129 330.953 497.711 331.23 497.426 331.777 497.148 332.328 497.008 333.152 497.008 334.258 497.008 335.355 497.148 336.18 497.426 336.73 497.711 337.281 498.129 337.555 498.688 337.555 499.25 337.555 499.672 337.281 499.953 336.73 500.234 336.18 500.375 335.355 500.375 334.258 500.375 333.152 500.234 332.328 499.953 331.777 499.672 331.23 499.25 330.953 498.688 330.953ZM498.688 330.094C499.586 330.094 500.273 330.449 500.75 331.16 501.223 331.871 501.461 332.902 501.461 334.258 501.461 335.605 501.223 336.637 500.75 337.348 500.273 338.059 499.586 338.414 498.688 338.414 497.789 338.414 497.102 338.059 496.629 337.348 496.152 336.637 495.918 335.605 495.918 334.258 495.918 332.902 496.152 331.871 496.629 331.16 497.102 330.449 497.789 330.094 498.688 330.094ZM498.688 330.094" fill="#262626"/>
<path d="M505.688 330.953C505.129 330.953 504.707 331.23 504.426 331.777 504.145 332.328 504.004 333.152 504.004 334.258 504.004 335.355 504.145 336.18 504.426 336.73 504.707 337.281 505.129 337.555 505.688 337.555 506.25 337.555 506.672 337.281 506.949 336.73 507.234 336.18 507.375 335.355 507.375 334.258 507.375 333.152 507.234 332.328 506.949 331.777 506.672 331.23 506.25 330.953 505.688 330.953ZM505.688 330.094C506.586 330.094 507.273 330.449 507.746 331.16 508.223 331.871 508.457 332.902 508.457 334.258 508.457 335.605 508.223 336.637 507.746 337.348 507.273 338.059 506.586 338.414 505.688 338.414 504.789 338.414 504.102 338.059 503.629 337.348 503.152 336.637 502.914 335.605 502.914 334.258 502.914 332.902 503.152 331.871 503.629 331.16 504.102 330.449 504.789 330.094 505.688 330.094ZM505.688 330.094" fill="#262626"/>
<path d="M512.684 330.953C512.125 330.953 511.707 331.23 511.426 331.777 511.145 332.328 511.004 333.152 511.004 334.258 511.004 335.355 511.145 336.18 511.426 336.73 511.707 337.281 512.125 337.555 512.684 337.555 513.246 337.555 513.668 337.281 513.949 336.73 514.23 336.18 514.371 335.355 514.371 334.258 514.371 333.152 514.23 332.328 513.949 331.777 513.668 331.23 513.246 330.953 512.684 330.953ZM512.684 330.094C513.586 330.094 514.27 330.449 514.746 331.16 515.219 331.871 515.457 332.902 515.457 334.258 515.457 335.605 515.219 336.637 514.746 337.348 514.27 338.059 513.586 338.414 512.684 338.414 511.785 338.414 511.102 338.059 510.625 337.348 510.152 336.637 509.914 335.605 509.914 334.258 509.914 332.902 510.152 331.871 510.625 331.16 511.102 330.449 511.785 330.094 512.684 330.094ZM512.684 330.094" fill="#262626"/>
<g clip-path="url(#clip_14)">
<g clip-path="url(#clip_15)">
<path stroke-width="1" stroke-linecap="round" stroke-linejoin="round" fill="none" stroke="#cccccc" d="M566.809 320.398V43.199"/>
</g>
</g>
<path d="M550.676 337.344H552.445V331.227L550.52 331.613V330.625L552.438 330.238H553.52V337.344H555.293V338.258H550.676ZM550.676 337.344" fill="#262626"/>
<path d="M560.465 331.184 557.727 335.465H560.465ZM560.18 330.238H561.547V335.465H562.691V336.367H561.547V338.258H560.465V336.367H556.848V335.32ZM560.18 330.238" fill="#262626"/>
<path d="M566.805 330.953C566.246 330.953 565.824 331.23 565.543 331.777 565.262 332.328 565.121 333.152 565.121 334.258 565.121 335.355 565.262 336.18 565.543 336.73 565.824 337.281 566.246 337.555 566.805 337.555 567.367 337.555 567.785 337.281 568.066 336.73 568.352 336.18 568.492 335.355 568.492 334.258 568.492 333.152 568.352 332.328 568.066 331.777 567.785 331.23 567.367 330.953 566.805 330.953ZM566.805 330.094C567.703 330.094 568.391 330.449 568.863 331.16 569.34 331.871 569.574 332.902 569.574 334.258 569.574 335.605 569.34 336.637 568.863 337.348 568.391 338.059 567.703 338.414 566.805 338.414 565.906 338.414 565.219 338.059 564.742 337.348 564.27 336.637 564.031 335.605 564.031 334.258 564.031 332.902 564.27 331.871 564.742 331.16 565.219 330.449 565.906 330.094 566.805 330.094ZM566.805 330.094" fill="#262626"/>
<path d="M573.801 330.953C573.242 330.953 572.824 331.23 572.543 331.777 572.262 332.328 572.121 333.152 572.121 334.258 572.121 335.355 572.262 336.18 572.543 336.73 572.824 337.281 573.242 337.555 573.801 337.555 574.363 337.555 574.785 337.281 575.066 336.73 575.348 336.18 575.488 335.355 575.488 334.258 575.488 333.152 575.348 332.328 575.066 331.777 574.785 331.23 574.363 330.953 573.801 330.953ZM573.801 330.094C574.699 330.094 575.387 330.449 575.863 331.16 576.336 331.871 576.574 332.902 576.574 334.258 576.574 335.605 576.336 336.637 575.863 337.348 575.387 338.059 574.699 338.414 573.801 338.414 572.902 338.414 572.215 338.059 571.742 337.348 571.27 336.637 571.031 335.605 571.031 334.258 571.031 332.902 571.27 331.871 571.742 331.16 572.215 330.449 572.902 330.094 573.801 330.094ZM573.801 330.094" fill="#262626"/>
<path d="M580.801 330.953C580.242 330.953 579.82 331.23 579.539 331.777 579.258 332.328 579.117 333.152 579.117 334.258 579.117 335.355 579.258 336.18 579.539 336.73 579.82 337.281 580.242 337.555 580.801 337.555 581.363 337.555 581.785 337.281 582.066 336.73 582.348 336.18 582.488 335.355 582.488 334.258 582.488 333.152 582.348 332.328 582.066 331.777 581.785 331.23 581.363 330.953 580.801 330.953ZM580.801 330.094C581.699 330.094 582.387 330.449 582.859 331.16 583.336 331.871 583.57 332.902 583.57 334.258 583.57 335.605 583.336 336.637 582.859 337.348 582.387 338.059 581.699 338.414 580.801 338.414 579.902 338.414 579.215 338.059 578.742 337.348 578.266 336.637 578.027 335.605 578.027 334.258 578.027 332.902 578.266 331.871 578.742 331.16 579.215 330.449 579.902 330.094 580.801 330.094ZM580.801 330.094" fill="#262626"/>
<g clip-path="url(#clip_16)">
<g clip-path="url(#clip_17)">
<path stroke-width="1" stroke-linecap="round" stroke-linejoin="round" fill="none" stroke="#cccccc" d="M634.922 320.398V43.199"/>
</g>
</g>
<path d="M618.789 337.344H620.562V331.227L618.633 331.613V330.625L620.551 330.238H621.637V337.344H623.406V338.258H618.789ZM618.789 337.344" fill="#262626"/>
<path d="M628.055 333.816C627.566 333.816 627.184 333.984 626.898 334.316 626.613 334.648 626.469 335.105 626.469 335.684 626.469 336.262 626.613 336.719 626.898 337.055 627.184 337.387 627.566 337.555 628.055 337.555 628.543 337.555 628.93 337.387 629.211 337.055 629.496 336.719 629.637 336.262 629.637 335.684 629.637 335.105 629.496 334.648 629.211 334.316 628.93 333.984 628.543 333.816 628.055 333.816ZM630.207 330.414V331.402C629.938 331.277 629.66 331.176 629.383 331.109 629.105 331.043 628.832 331.008 628.559 331.008 627.844 331.008 627.297 331.25 626.918 331.73 626.539 332.215 626.324 332.945 626.27 333.922 626.48 333.613 626.746 333.371 627.066 333.207 627.387 333.039 627.734 332.957 628.117 332.957 628.926 332.957 629.562 333.203 630.027 333.691 630.496 334.18 630.73 334.844 630.73 335.684 630.73 336.508 630.484 337.172 630 337.668 629.512 338.168 628.863 338.414 628.055 338.414 627.129 338.414 626.418 338.059 625.926 337.348 625.438 336.637 625.191 335.605 625.191 334.258 625.191 332.988 625.492 331.98 626.094 331.227 626.695 330.473 627.504 330.094 628.516 330.094 628.789 330.094 629.062 330.121 629.34 330.176 629.617 330.23 629.906 330.309 630.207 330.414ZM630.207 330.414" fill="#262626"/>
<path d="M634.918 330.953C634.359 330.953 633.941 331.23 633.656 331.777 633.379 332.328 633.238 333.152 633.238 334.258 633.238 335.355 633.379 336.18 633.656 336.73 633.941 337.281 634.359 337.555 634.918 337.555 635.48 337.555 635.902 337.281 636.184 336.73 636.465 336.18 636.605 335.355 636.605 334.258 636.605 333.152 636.465 332.328 636.184 331.777 635.902 331.23 635.48 330.953 634.918 330.953ZM634.918 330.094C635.816 330.094 636.504 330.449 636.98 331.16 637.453 331.871 637.691 332.902 637.691 334.258 637.691 335.605 637.453 336.637 636.98 337.348 636.504 338.059 635.816 338.414 634.918 338.414 634.02 338.414 633.332 338.059 632.859 337.348 632.383 336.637 632.148 335.605 632.148 334.258 632.148 332.902 632.383 331.871 632.859 331.16 633.332 330.449 634.02 330.094 634.918 330.094ZM634.918 330.094" fill="#262626"/>
<path d="M641.918 330.953C641.359 330.953 640.938 331.23 640.656 331.777 640.375 332.328 640.234 333.152 640.234 334.258 640.234 335.355 640.375 336.18 640.656 336.73 640.938 337.281 641.359 337.555 641.918 337.555 642.48 337.555 642.902 337.281 643.18 336.73 643.465 336.18 643.605 335.355 643.605 334.258 643.605 333.152 643.465 332.328 643.18 331.777 642.902 331.23 642.48 330.953 641.918 330.953ZM641.918 330.094C642.816 330.094 643.504 330.449 643.977 331.16 644.453 331.871 644.688 332.902 644.688 334.258 644.688 335.605 644.453 336.637 643.977 337.348 643.504 338.059 642.816 338.414 641.918 338.414 641.02 338.414 640.332 338.059 639.859 337.348 639.383 336.637 639.145 335.605 639.145 334.258 639.145 332.902 639.383 331.871 639.859 331.16 640.332 330.449 641.02 330.094 641.918 330.094ZM641.918 330.094" fill="#262626"/>
<path d="M648.914 330.953C648.355 330.953 647.938 331.23 647.656 331.777 647.375 332.328 647.234 333.152 647.234 334.258 647.234 335.355 647.375 336.18 647.656 336.73 647.938 337.281 648.355 337.555 648.914 337.555 649.477 337.555 649.898 337.281 650.18 336.73 650.461 336.18 650.602 335.355 650.602 334.258 650.602 333.152 650.461 332.328 650.18 331.777 649.898 331.23 649.477 330.953 648.914 330.953ZM648.914 330.094C649.816 330.094 650.5 330.449 650.977 331.16 651.449 331.871 651.688 332.902 651.688 334.258 651.688 335.605 651.449 336.637 650.977 337.348 650.5 338.059 649.816 338.414 648.914 338.414 648.016 338.414 647.332 338.059 646.855 337.348 646.383 336.637 646.145 335.605 646.145 334.258 646.145 332.902 646.383 331.871 646.855 331.16 647.332 330.449 648.016 330.094 648.914 330.094ZM648.914 330.094" fill="#262626"/>
<path d="M326.633 344.914H334.035V345.914H330.93V353.664H329.742V345.914H326.633ZM326.633 344.914" fill="#262626"/>
<path d="M335.633 347.855C335.055 347.855 334.598 348.082 334.262 348.535 333.926 348.984 333.758 349.602 333.758 350.387 333.758 351.172 333.926 351.793 334.258 352.242 334.594 352.695 335.051 352.918 335.633 352.918 336.207 352.918 336.664 352.695 336.996 352.242 337.332 351.789 337.5 351.168 337.5 350.387 337.5 349.609 337.332 348.996 336.996 348.539 336.664 348.086 336.207 347.855 335.633 347.855ZM335.633 346.945C336.57 346.945 337.305 347.25 337.84 347.859 338.379 348.469 338.645 349.312 338.645 350.387 338.645 351.461 338.379 352.305 337.84 352.918 337.305 353.527 336.57 353.836 335.633 353.836 334.691 353.836 333.953 353.527 333.418 352.918 332.887 352.305 332.621 351.461 332.621 350.387 332.621 349.312 332.887 348.469 333.418 347.859 333.953 347.25 334.691 346.945 335.633 346.945ZM335.633 346.945" fill="#262626"/>
<path d="M340.391 344.547H341.473V349.93L344.691 347.102H346.066L342.586 350.172 346.215 353.664H344.809L341.473 350.461V353.664H340.391ZM340.391 344.547" fill="#262626"/>
<path d="M352.559 350.113V350.641H347.602C347.648 351.383 347.875 351.949 348.273 352.336 348.672 352.727 349.23 352.918 349.945 352.918 350.359 352.918 350.762 352.867 351.148 352.77 351.539 352.668 351.926 352.516 352.309 352.309V353.332C351.922 353.492 351.523 353.617 351.117 353.707 350.711 353.793 350.301 353.836 349.883 353.836 348.836 353.836 348.004 353.531 347.395 352.922 346.781 352.312 346.477 351.488 346.477 350.445 346.477 349.371 346.766 348.52 347.348 347.891 347.926 347.258 348.711 346.945 349.695 346.945 350.578 346.945 351.273 347.227 351.789 347.797 352.301 348.363 352.559 349.137 352.559 350.113ZM351.48 349.797C351.473 349.207 351.309 348.738 350.988 348.387 350.664 348.035 350.238 347.855 349.707 347.855 349.105 347.855 348.625 348.027 348.262 348.367 347.902 348.707 347.691 349.188 347.637 349.805ZM351.48 349.797" fill="#262626"/>
<path d="M359.785 349.703V353.664H358.707V349.738C358.707 349.117 358.586 348.652 358.344 348.344 358.102 348.035 357.738 347.883 357.254 347.883 356.672 347.883 356.211 348.066 355.875 348.438 355.539 348.809 355.371 349.312 355.371 349.957V353.664H354.289V347.102H355.371V348.121C355.629 347.727 355.934 347.43 356.281 347.238 356.633 347.043 357.035 346.945 357.492 346.945 358.246 346.945 358.816 347.176 359.203 347.645 359.59 348.109 359.785 348.797 359.785 349.703ZM359.785 349.703" fill="#262626"/>
<path d="M366.977 345.887V349.176H368.469C369.02 349.176 369.445 349.031 369.742 348.746 370.047 348.461 370.195 348.055 370.195 347.527 370.195 347.004 370.047 346.602 369.742 346.316 369.445 346.031 369.02 345.887 368.469 345.887ZM365.797 344.914H368.469C369.449 344.914 370.191 345.137 370.691 345.582 371.195 346.023 371.445 346.676 371.445 347.527 371.445 348.395 371.195 349.047 370.691 349.488 370.191 349.93 369.449 350.148 368.469 350.148H366.977V353.664H365.797ZM365.797 344.914" fill="#262626"/>
<path d="M375.094 347.855C374.516 347.855 374.059 348.082 373.723 348.535 373.387 348.984 373.219 349.602 373.219 350.387 373.219 351.172 373.383 351.793 373.719 352.242 374.055 352.695 374.512 352.918 375.094 352.918 375.668 352.918 376.121 352.695 376.457 352.242 376.793 351.789 376.961 351.168 376.961 350.387 376.961 349.609 376.793 348.996 376.457 348.539 376.121 348.086 375.668 347.855 375.094 347.855ZM375.094 346.945C376.031 346.945 376.766 347.25 377.301 347.859 377.836 348.469 378.105 349.312 378.105 350.387 378.105 351.461 377.836 352.305 377.301 352.918 376.766 353.527 376.031 353.836 375.094 353.836 374.152 353.836 373.414 353.527 372.879 352.918 372.348 352.305 372.082 351.461 372.082 350.387 372.082 349.312 372.348 348.469 372.879 347.859 373.414 347.25 374.152 346.945 375.094 346.945ZM375.094 346.945" fill="#262626"/>
<path d="M384.074 347.293V348.316C383.77 348.16 383.453 348.043 383.125 347.965 382.797 347.887 382.457 347.848 382.105 347.848 381.57 347.848 381.168 347.93 380.902 348.09 380.633 348.254 380.5 348.5 380.5 348.832 380.5 349.082 380.598 349.277 380.789 349.418 380.98 349.562 381.363 349.695 381.941 349.824L382.312 349.91C383.078 350.07 383.621 350.305 383.945 350.602 384.266 350.902 384.426 351.316 384.426 351.852 384.426 352.461 384.188 352.945 383.703 353.301 383.223 353.656 382.559 353.836 381.715 353.836 381.363 353.836 380.996 353.801 380.617 353.73 380.234 353.664 379.832 353.559 379.41 353.426V352.309C379.809 352.52 380.203 352.672 380.59 352.777 380.977 352.879 381.359 352.93 381.738 352.93 382.246 352.93 382.637 352.844 382.91 352.672 383.184 352.496 383.32 352.25 383.32 351.934 383.32 351.645 383.219 351.418 383.023 351.262 382.828 351.105 382.395 350.957 381.727 350.809L381.352 350.723C380.684 350.582 380.199 350.367 379.902 350.074 379.605 349.785 379.457 349.383 379.457 348.879 379.457 348.258 379.676 347.785 380.113 347.449 380.551 347.113 381.172 346.945 381.977 346.945 382.375 346.945 382.75 346.973 383.102 347.031 383.453 347.09 383.777 347.176 384.074 347.293ZM384.074 347.293" fill="#262626"/>
<path d="M386.145 347.102H387.223V353.664H386.145ZM386.145 344.547H387.223V345.914H386.145ZM386.145 344.547" fill="#262626"/>
<path d="M390.543 345.238V347.102H392.766V347.941H390.543V351.504C390.543 352.039 390.617 352.383 390.766 352.535 390.91 352.688 391.207 352.762 391.656 352.762H392.766V353.664H391.656C390.824 353.664 390.25 353.508 389.934 353.199 389.617 352.887 389.461 352.32 389.461 351.504V347.941H388.668V347.102H389.461V345.238ZM390.543 345.238" fill="#262626"/>
<path d="M394.184 347.102H395.262V353.664H394.184ZM394.184 344.547H395.262V345.914H394.184ZM394.184 344.547" fill="#262626"/>
<path d="M400.059 347.855C399.48 347.855 399.023 348.082 398.688 348.535 398.352 348.984 398.184 349.602 398.184 350.387 398.184 351.172 398.352 351.793 398.684 352.242 399.02 352.695 399.477 352.918 400.059 352.918 400.633 352.918 401.09 352.695 401.426 352.242 401.762 351.789 401.93 351.168 401.93 350.387 401.93 349.609 401.762 348.996 401.426 348.539 401.09 348.086 400.633 347.855 400.059 347.855ZM400.059 346.945C400.996 346.945 401.734 347.25 402.27 347.859 402.805 348.469 403.07 349.312 403.07 350.387 403.07 351.461 402.805 352.305 402.27 352.918 401.734 353.527 400.996 353.836 400.059 353.836 399.117 353.836 398.379 353.527 397.848 352.918 397.312 352.305 397.047 351.461 397.047 350.387 397.047 349.312 397.312 348.469 397.848 347.859 398.379 347.25 399.117 346.945 400.059 346.945ZM400.059 346.945" fill="#262626"/>
<path d="M410.316 349.703V353.664H409.238V349.738C409.238 349.117 409.117 348.652 408.871 348.344 408.629 348.035 408.266 347.883 407.785 347.883 407.199 347.883 406.742 348.066 406.406 348.438 406.07 348.809 405.902 349.312 405.902 349.957V353.664H404.816V347.102H405.902V348.121C406.16 347.727 406.465 347.43 406.812 347.238 407.164 347.043 407.566 346.945 408.023 346.945 408.777 346.945 409.348 347.176 409.734 347.645 410.121 348.109 410.316 348.797 410.316 349.703ZM410.316 349.703" fill="#262626"/>
<g clip-path="url(#clip_18)">
<g clip-path="url(#clip_19)">
<path stroke-width="1" stroke-linecap="round" stroke-linejoin="round" fill="none" stroke="#cccccc" d="M90 303.133H648"/>
</g>
</g>
<path d="M67.469 302.988C67.988 303.098 68.395 303.332 68.684 303.684 68.977 304.031 69.125 304.465 69.125 304.98 69.125 305.773 68.852 306.387 68.309 306.82 67.762 307.254 66.988 307.469 65.988 307.469 65.652 307.469 65.305 307.438 64.949 307.371 64.594 307.305 64.223 307.203 63.844 307.07V306.023C64.145 306.199 64.473 306.332 64.832 306.422 65.191 306.512 65.566 306.555 65.957 306.555 66.637 306.555 67.152 306.422 67.508 306.152 67.867 305.883 68.043 305.492 68.043 304.98 68.043 304.508 67.879 304.141 67.547 303.875 67.215 303.605 66.754 303.473 66.164 303.473H65.23V302.582H66.207C66.742 302.582 67.148 302.473 67.434 302.262 67.715 302.047 67.855 301.742 67.855 301.34 67.855 300.93 67.711 300.613 67.418 300.395 67.129 300.172 66.711 300.062 66.164 300.062 65.867 300.062 65.547 300.094 65.207 300.16 64.867 300.223 64.492 300.324 64.086 300.457V299.492C64.5 299.379 64.883 299.293 65.246 299.234 65.605 299.176 65.941 299.148 66.262 299.148 67.086 299.148 67.738 299.336 68.215 299.711 68.695 300.086 68.938 300.59 68.938 301.227 68.938 301.672 68.809 302.047 68.555 302.352 68.301 302.656 67.938 302.871 67.469 302.988ZM67.469 302.988" fill="#262626"/>
<path d="M71.18 305.949H72.317V307.312H71.18Z" fill="#262626"/>
<path d="M76.996 300.008C76.441 300.008 76.02 300.281 75.738 300.832 75.457 301.383 75.316 302.207 75.316 303.312 75.316 304.41 75.457 305.234 75.738 305.785 76.02 306.336 76.441 306.609 76.996 306.609 77.559 306.609 77.98 306.336 78.262 305.785 78.543 305.234 78.684 304.41 78.684 303.312 78.684 302.207 78.543 301.383 78.262 300.832 77.98 300.281 77.559 300.008 76.996 300.008ZM76.996 299.148C77.898 299.148 78.586 299.504 79.059 300.215 79.531 300.926 79.77 301.957 79.77 303.312 79.77 304.66 79.531 305.691 79.059 306.402 78.586 307.113 77.898 307.469 76.996 307.469 76.098 307.469 75.414 307.113 74.938 306.402 74.465 305.691 74.227 304.66 74.227 303.312 74.227 301.957 74.465 300.926 74.938 300.215 75.414 299.504 76.098 299.148 76.996 299.148ZM76.996 299.148" fill="#262626"/>
<g clip-path="url(#clip_20)">
<g clip-path="url(#clip_21)">
<path stroke-width="1" stroke-linecap="round" stroke-linejoin="round" fill="none" stroke="#cccccc" d="M90 265.801H648"/>
</g>
</g>
<path d="M67.469 265.656C67.988 265.766 68.395 265.996 68.684 266.348 68.977 266.699 69.125 267.133 69.125 267.648 69.125 268.438 68.852 269.051 68.309 269.484 67.762 269.918 66.988 270.137 65.988 270.137 65.652 270.137 65.305 270.102 64.949 270.035 64.594 269.969 64.223 269.871 63.844 269.738V268.691C64.145 268.867 64.473 268.996 64.832 269.086 65.191 269.176 65.566 269.223 65.957 269.223 66.637 269.223 67.152 269.086 67.508 268.82 67.867 268.551 68.043 268.16 68.043 267.648 68.043 267.176 67.879 266.805 67.547 266.539 67.215 266.273 66.754 266.141 66.164 266.141H65.23V265.246H66.207C66.742 265.246 67.148 265.141 67.434 264.93 67.715 264.715 67.855 264.406 67.855 264.008 67.855 263.594 67.711 263.281 67.418 263.059 67.129 262.84 66.711 262.727 66.164 262.727 65.867 262.727 65.547 262.762 65.207 262.824 64.867 262.891 64.492 262.988 64.086 263.125V262.16C64.5 262.043 64.883 261.957 65.246 261.902 65.605 261.844 65.941 261.816 66.262 261.816 67.086 261.816 67.738 262.004 68.215 262.379 68.695 262.75 68.938 263.258 68.938 263.895 68.938 264.336 68.809 264.715 68.555 265.02 68.301 265.324 67.938 265.535 67.469 265.656ZM67.469 265.656" fill="#262626"/>
<path d="M71.18 268.613H72.317V269.98H71.18Z" fill="#262626"/>
<path d="M74.688 261.961H78.949V262.875H75.684V264.84C75.84 264.785 75.996 264.746 76.152 264.719 76.312 264.691 76.469 264.68 76.629 264.68 77.523 264.68 78.23 264.922 78.754 265.414 79.277 265.906 79.539 266.57 79.539 267.406 79.539 268.27 79.27 268.941 78.734 269.418 78.195 269.898 77.438 270.137 76.461 270.137 76.125 270.137 75.781 270.105 75.434 270.051 75.082 269.992 74.723 269.906 74.352 269.793V268.699C74.672 268.875 75.004 269.008 75.348 269.094 75.691 269.18 76.055 269.223 76.438 269.223 77.059 269.223 77.551 269.059 77.91 268.734 78.273 268.406 78.453 267.965 78.453 267.406 78.453 266.848 78.273 266.406 77.91 266.082 77.551 265.754 77.059 265.59 76.438 265.59 76.148 265.59 75.859 265.625 75.57 265.688 75.285 265.75 74.988 265.852 74.688 265.988ZM74.688 261.961" fill="#262626"/>
<g clip-path="url(#clip_22)">
<g clip-path="url(#clip_23)">
<path stroke-width="1" stroke-linecap="round" stroke-linejoin="round" fill="none" stroke="#cccccc" d="M90 228.465H648"/>
</g>
</g>
<path d="M67.164 225.57 64.426 229.852H67.164ZM66.879 224.625H68.242V229.852H69.387V230.754H68.242V232.645H67.164V230.754H63.543V229.707ZM66.879 224.625" fill="#262626"/>
<path d="M71.18 231.281H72.317V232.64402H71.18Z" fill="#262626"/>
<path d="M76.996 225.34C76.441 225.34 76.02 225.617 75.738 226.168 75.457 226.715 75.316 227.543 75.316 228.645 75.316 229.742 75.457 230.566 75.738 231.117 76.02 231.668 76.441 231.941 76.996 231.941 77.559 231.941 77.98 231.668 78.262 231.117 78.543 230.566 78.684 229.742 78.684 228.645 78.684 227.543 78.543 226.715 78.262 226.168 77.98 225.617 77.559 225.34 76.996 225.34ZM76.996 224.48C77.898 224.48 78.586 224.836 79.059 225.551 79.531 226.258 79.77 227.293 79.77 228.645 79.77 229.996 79.531 231.023 79.059 231.738 78.586 232.445 77.898 232.801 76.996 232.801 76.098 232.801 75.414 232.445 74.938 231.738 74.465 231.023 74.227 229.996 74.227 228.645 74.227 227.293 74.465 226.258 74.938 225.551 75.414 224.836 76.098 224.48 76.996 224.48ZM76.996 224.48" fill="#262626"/>
<g clip-path="url(#clip_24)">
<g clip-path="url(#clip_25)">
<path stroke-width="1" stroke-linecap="round" stroke-linejoin="round" fill="none" stroke="#cccccc" d="M90 191.133H648"/>
</g>
</g>
<path d="M67.164 188.238 64.426 192.52H67.164ZM66.879 187.293H68.242V192.52H69.387V193.422H68.242V195.312H67.164V193.422H63.543V192.375ZM66.879 187.293" fill="#262626"/>
<path d="M71.18 193.949H72.317V195.31201H71.18Z" fill="#262626"/>
<path d="M74.688 187.293H78.949V188.207H75.684V190.172C75.84 190.117 75.996 190.078 76.152 190.051 76.312 190.023 76.469 190.012 76.629 190.012 77.523 190.012 78.23 190.258 78.754 190.746 79.277 191.238 79.539 191.902 79.539 192.738 79.539 193.602 79.27 194.273 78.734 194.754 78.195 195.23 77.438 195.469 76.461 195.469 76.125 195.469 75.781 195.441 75.434 195.383 75.082 195.324 74.723 195.238 74.352 195.125V194.035C74.672 194.211 75.004 194.34 75.348 194.426 75.691 194.512 76.055 194.555 76.438 194.555 77.059 194.555 77.551 194.391 77.91 194.066 78.273 193.742 78.453 193.297 78.453 192.738 78.453 192.18 78.273 191.738 77.91 191.414 77.551 191.086 77.059 190.926 76.438 190.926 76.148 190.926 75.859 190.957 75.57 191.02 75.285 191.086 74.988 191.184 74.688 191.32ZM74.688 187.293" fill="#262626"/>
<g clip-path="url(#clip_26)">
<g clip-path="url(#clip_27)">
<path stroke-width="1" stroke-linecap="round" stroke-linejoin="round" fill="none" stroke="#cccccc" d="M90 153.801H648"/>
</g>
</g>
<path d="M64.195 149.961H68.453V150.875H65.188V152.84C65.344 152.785 65.5 152.746 65.66 152.719 65.816 152.691 65.977 152.68 66.133 152.68 67.027 152.68 67.738 152.922 68.258 153.414 68.781 153.906 69.043 154.57 69.043 155.406 69.043 156.27 68.777 156.941 68.238 157.418 67.699 157.898 66.945 158.137 65.965 158.137 65.629 158.137 65.285 158.105 64.938 158.051 64.59 157.992 64.227 157.906 63.855 157.793V156.699C64.176 156.875 64.512 157.008 64.855 157.094 65.199 157.18 65.562 157.223 65.945 157.223 66.562 157.223 67.055 157.059 67.414 156.734 67.777 156.406 67.957 155.965 67.957 155.406 67.957 154.848 67.777 154.406 67.414 154.082 67.055 153.754 66.562 153.59 65.945 153.59 65.652 153.59 65.363 153.625 65.074 153.688 64.789 153.75 64.496 153.852 64.195 153.988ZM64.195 149.961" fill="#262626"/>
<path d="M71.18 156.613H72.317V157.98001H71.18Z" fill="#262626"/>
<path d="M76.996 150.676C76.441 150.676 76.02 150.949 75.738 151.5 75.457 152.047 75.316 152.875 75.316 153.977 75.316 155.078 75.457 155.902 75.738 156.453 76.02 157 76.441 157.277 76.996 157.277 77.559 157.277 77.98 157 78.262 156.453 78.543 155.902 78.684 155.078 78.684 153.977 78.684 152.875 78.543 152.047 78.262 151.5 77.98 150.949 77.559 150.676 76.996 150.676ZM76.996 149.816C77.898 149.816 78.586 150.172 79.059 150.883 79.531 151.594 79.77 152.625 79.77 153.977 79.77 155.328 79.531 156.359 79.059 157.07 78.586 157.781 77.898 158.137 76.996 158.137 76.098 158.137 75.414 157.781 74.938 157.07 74.465 156.359 74.227 155.328 74.227 153.977 74.227 152.625 74.465 151.594 74.938 150.883 75.414 150.172 76.098 149.816 76.996 149.816ZM76.996 149.816" fill="#262626"/>
<g clip-path="url(#clip_28)">
<g clip-path="url(#clip_29)">
<path stroke-width="1" stroke-linecap="round" stroke-linejoin="round" fill="none" stroke="#cccccc" d="M90 116.465H648"/>
</g>
</g>
<path d="M64.195 112.625H68.453V113.539H65.188V115.504C65.344 115.449 65.5 115.41 65.66 115.383 65.816 115.359 65.977 115.344 66.133 115.344 67.027 115.344 67.738 115.59 68.258 116.082 68.781 116.57 69.043 117.234 69.043 118.074 69.043 118.938 68.777 119.605 68.238 120.086 67.699 120.562 66.945 120.801 65.965 120.801 65.629 120.801 65.285 120.773 64.938 120.715 64.59 120.66 64.227 120.574 63.855 120.457V119.367C64.176 119.543 64.512 119.672 64.855 119.758 65.199 119.844 65.562 119.887 65.945 119.887 66.562 119.887 67.055 119.727 67.414 119.398 67.777 119.074 67.957 118.633 67.957 118.074 67.957 117.516 67.777 117.074 67.414 116.746 67.055 116.422 66.562 116.258 65.945 116.258 65.652 116.258 65.363 116.289 65.074 116.355 64.789 116.418 64.496 116.52 64.195 116.656ZM64.195 112.625" fill="#262626"/>
<path d="M71.18 119.281H72.317V120.644H71.18Z" fill="#262626"/>
<path d="M74.688 112.625H78.949V113.539H75.684V115.504C75.84 115.449 75.996 115.41 76.152 115.383 76.312 115.359 76.469 115.344 76.629 115.344 77.523 115.344 78.23 115.59 78.754 116.082 79.277 116.57 79.539 117.234 79.539 118.074 79.539 118.938 79.27 119.605 78.734 120.086 78.195 120.562 77.438 120.801 76.461 120.801 76.125 120.801 75.781 120.773 75.434 120.715 75.082 120.66 74.723 120.574 74.352 120.457V119.367C74.672 119.543 75.004 119.672 75.348 119.758 75.691 119.844 76.055 119.887 76.438 119.887 77.059 119.887 77.551 119.727 77.91 119.398 78.273 119.074 78.453 118.633 78.453 118.074 78.453 117.516 78.273 117.074 77.91 116.746 77.551 116.422 77.059 116.258 76.438 116.258 76.148 116.258 75.859 116.289 75.57 116.355 75.285 116.418 74.988 116.52 74.688 116.656ZM74.688 112.625" fill="#262626"/>
<g clip-path="url(#clip_30)">
<g clip-path="url(#clip_31)">
<path stroke-width="1" stroke-linecap="round" stroke-linejoin="round" fill="none" stroke="#cccccc" d="M90 79.133H648"/>
</g>
</g>
<path d="M66.637 78.871C66.152 78.871 65.766 79.039 65.48 79.371 65.195 79.703 65.055 80.16 65.055 80.738 65.055 81.316 65.195 81.773 65.48 82.109 65.766 82.441 66.152 82.609 66.637 82.609 67.125 82.609 67.512 82.441 67.797 82.109 68.078 81.773 68.223 81.316 68.223 80.738 68.223 80.16 68.078 79.703 67.797 79.371 67.512 79.039 67.125 78.871 66.637 78.871ZM68.793 75.469V76.457C68.52 76.328 68.246 76.23 67.969 76.164 67.691 76.094 67.414 76.062 67.141 76.062 66.426 76.062 65.879 76.305 65.5 76.785 65.125 77.27 64.906 78 64.855 78.977 65.066 78.668 65.328 78.426 65.648 78.262 65.969 78.094 66.32 78.012 66.703 78.012 67.508 78.012 68.145 78.258 68.613 78.746 69.078 79.234 69.312 79.898 69.312 80.738 69.312 81.562 69.07 82.223 68.582 82.723 68.094 83.219 67.445 83.469 66.637 83.469 65.711 83.469 65 83.113 64.512 82.402 64.02 81.691 63.773 80.66 63.773 79.312 63.773 78.043 64.074 77.035 64.676 76.281 65.277 75.527 66.086 75.148 67.098 75.148 67.371 75.148 67.648 75.176 67.926 75.23 68.203 75.281 68.492 75.363 68.793 75.469ZM68.793 75.469" fill="#262626"/>
<path d="M71.18 81.949H72.317V83.312H71.18Z" fill="#262626"/>
<path d="M76.996 76.008C76.441 76.008 76.02 76.281 75.738 76.832 75.457 77.383 75.316 78.207 75.316 79.312 75.316 80.41 75.457 81.234 75.738 81.785 76.02 82.336 76.441 82.609 76.996 82.609 77.559 82.609 77.98 82.336 78.262 81.785 78.543 81.234 78.684 80.41 78.684 79.312 78.684 78.207 78.543 77.383 78.262 76.832 77.98 76.281 77.559 76.008 76.996 76.008ZM76.996 75.148C77.898 75.148 78.586 75.504 79.059 76.215 79.531 76.926 79.77 77.957 79.77 79.312 79.77 80.66 79.531 81.691 79.059 82.402 78.586 83.113 77.898 83.469 76.996 83.469 76.098 83.469 75.414 83.113 74.938 82.402 74.465 81.691 74.227 80.66 74.227 79.312 74.227 77.957 74.465 76.926 74.938 76.215 75.414 75.504 76.098 75.148 76.996 75.148ZM76.996 75.148" fill="#262626"/>
<path d="M48.734 250.348H52.023V248.859C52.023 248.309 51.879 247.883 51.594 247.582 51.309 247.281 50.902 247.129 50.375 247.129 49.852 247.129 49.449 247.281 49.164 247.582 48.879 247.883 48.734 248.309 48.734 248.859ZM47.762 251.531V248.859C47.762 247.879 47.984 247.137 48.43 246.637 48.871 246.133 49.52 245.883 50.375 245.883 51.238 245.883 51.891 246.133 52.332 246.637 52.773 247.137 52.996 247.879 52.996 248.859V250.348H56.512V251.531ZM47.762 251.531" fill="#262626"/>
<path d="M50.957 240.75C50.887 240.871 50.836 241.004 50.801 241.145 50.77 241.289 50.75 241.445 50.75 241.617 50.75 242.227 50.949 242.695 51.344 243.02 51.742 243.348 52.312 243.508 53.055 243.508H56.512V244.594H49.949V243.508H50.969C50.57 243.281 50.273 242.988 50.082 242.625 49.887 242.262 49.789 241.82 49.789 241.297 49.789 241.227 49.797 241.145 49.805 241.055 49.816 240.965 49.828 240.863 49.848 240.754ZM50.957 240.75" fill="#262626"/>
<path d="M50.703 237.344C50.703 237.922 50.93 238.379 51.383 238.715 51.832 239.051 52.449 239.219 53.234 239.219 54.02 239.219 54.637 239.055 55.09 238.719 55.539 238.387 55.766 237.926 55.766 237.344 55.766 236.77 55.539 236.316 55.086 235.98 54.633 235.645 54.016 235.477 53.234 235.477 52.457 235.477 51.84 235.645 51.387 235.98 50.93 236.316 50.703 236.77 50.703 237.344ZM49.789 237.344C49.789 236.406 50.098 235.672 50.707 235.137 51.316 234.602 52.156 234.332 53.234 234.332 54.309 234.332 55.152 234.602 55.766 235.137 56.375 235.672 56.68 236.406 56.68 237.344 56.68 238.285 56.375 239.023 55.766 239.559 55.152 240.09 54.309 240.355 53.234 240.355 52.156 240.355 51.316 240.09 50.707 239.559 50.098 239.023 49.789 238.285 49.789 237.344ZM49.789 237.344" fill="#262626"/>
<path d="M50.703 230.004C50.703 230.582 50.93 231.039 51.383 231.375 51.832 231.711 52.449 231.879 53.234 231.879 54.02 231.879 54.637 231.711 55.09 231.379 55.539 231.043 55.766 230.586 55.766 230.004 55.766 229.43 55.539 228.973 55.086 228.641 54.633 228.301 54.016 228.133 53.234 228.133 52.457 228.133 51.84 228.301 51.387 228.641 50.93 228.973 50.703 229.43 50.703 230.004ZM49.789 230.004C49.789 229.066 50.098 228.332 50.707 227.797 51.316 227.258 52.156 226.992 53.234 226.992 54.309 226.992 55.152 227.258 55.766 227.797 56.375 228.332 56.68 229.066 56.68 230.004 56.68 230.945 56.375 231.684 55.766 232.215 55.152 232.75 54.309 233.016 53.234 233.016 52.156 233.016 51.316 232.75 50.707 232.215 50.098 231.684 49.789 230.945 49.789 230.004ZM49.789 230.004" fill="#262626"/>
<path d="M47.395 221.883H48.289V222.914C48.289 223.301 48.367 223.57 48.523 223.719 48.68 223.871 48.961 223.945 49.367 223.945H49.949V222.168H50.785V223.945H56.512V225.027H50.785V226.059H49.949V225.027H49.492C48.762 225.027 48.23 224.859 47.895 224.52 47.559 224.18 47.395 223.641 47.395 222.902ZM47.395 221.883" fill="#262626"/>
<path d="M52.742 219.027H53.703V222.183H52.742Z" fill="#262626"/>
<path d="M48.734 216.078H52.023V214.59C52.023 214.039 51.879 213.613 51.594 213.312 51.309 213.012 50.902 212.863 50.375 212.863 49.852 212.863 49.449 213.012 49.164 213.312 48.879 213.613 48.734 214.039 48.734 214.59ZM47.762 217.262V214.59C47.762 213.609 47.984 212.867 48.43 212.367 48.871 211.863 49.52 211.613 50.375 211.613 51.238 211.613 51.891 211.863 52.332 212.367 52.773 212.867 52.996 213.609 52.996 214.59V216.078H56.512V217.262ZM47.762 217.262" fill="#262626"/>
<path d="M49.949 210.344V209.266H56.512V210.344ZM47.395 210.344V209.266H48.758V210.344ZM47.395 210.344" fill="#262626"/>
<path d="M47.395 205.93H56.512V207.008H47.395Z" fill="#262626"/>
<path d="M52.961 198.062H53.488V203.02C54.23 202.973 54.793 202.75 55.184 202.348 55.57 201.949 55.766 201.391 55.766 200.676 55.766 200.262 55.715 199.859 55.613 199.473 55.512 199.082 55.359 198.695 55.156 198.312H56.176C56.34 198.699 56.465 199.098 56.551 199.504 56.637 199.91 56.68 200.32 56.68 200.738 56.68 201.785 56.379 202.617 55.77 203.227 55.16 203.84 54.332 204.145 53.293 204.145 52.219 204.145 51.367 203.855 50.738 203.273 50.105 202.695 49.789 201.91 49.789 200.926 49.789 200.043 50.074 199.348 50.645 198.832 51.211 198.32 51.984 198.062 52.961 198.062ZM52.645 199.141C52.055 199.148 51.586 199.312 51.234 199.637 50.879 199.957 50.703 200.383 50.703 200.914 50.703 201.516 50.875 202 51.215 202.359 51.555 202.719 52.031 202.93 52.648 202.984ZM52.645 199.141" fill="#262626"/>
<path d="M48.734 191.25H52.023V189.758C52.023 189.207 51.879 188.781 51.594 188.484 51.309 188.18 50.902 188.031 50.375 188.031 49.852 188.031 49.449 188.18 49.164 188.484 48.879 188.781 48.734 189.207 48.734 189.758ZM47.762 192.43V189.758C47.762 188.777 47.984 188.039 48.43 187.535 48.871 187.035 49.52 186.781 50.375 186.781 51.238 186.781 51.891 187.035 52.332 187.535 52.773 188.039 52.996 188.777 52.996 189.758V191.25H56.512V192.43ZM47.762 192.43" fill="#262626"/>
<path d="M52.961 180.062H53.488V185.02C54.23 184.973 54.793 184.75 55.184 184.348 55.57 183.949 55.766 183.391 55.766 182.676 55.766 182.262 55.715 181.863 55.613 181.473 55.512 181.086 55.359 180.699 55.156 180.316H56.176C56.34 180.703 56.465 181.098 56.551 181.504 56.637 181.91 56.68 182.324 56.68 182.742 56.68 183.789 56.379 184.617 55.77 185.23 55.16 185.84 54.332 186.145 53.293 186.145 52.219 186.145 51.367 185.855 50.738 185.277 50.105 184.695 49.789 183.914 49.789 182.93 49.789 182.047 50.074 181.348 50.645 180.832 51.211 180.32 51.984 180.062 52.961 180.062ZM52.645 181.141C52.055 181.148 51.586 181.312 51.234 181.637 50.879 181.957 50.703 182.387 50.703 182.918 50.703 183.52 50.875 184 51.215 184.359 51.555 184.723 52.031 184.93 52.648 184.984ZM52.645 181.141" fill="#262626"/>
<path d="M50.957 174.492C50.887 174.613 50.836 174.746 50.801 174.887 50.77 175.031 50.75 175.188 50.75 175.359 50.75 175.969 50.949 176.438 51.344 176.762 51.742 177.09 52.312 177.25 53.055 177.25H56.512V178.336H49.949V177.25H50.969C50.57 177.023 50.273 176.73 50.082 176.367 49.887 176.004 49.789 175.562 49.789 175.043 49.789 174.969 49.797 174.887 49.805 174.797 49.816 174.707 49.828 174.605 49.848 174.496ZM50.957 174.492" fill="#262626"/>
<path d="M55.527 172.316H59.008V173.402H49.949V172.316H50.945C50.555 172.09 50.266 171.805 50.074 171.461 49.887 171.113 49.789 170.699 49.789 170.219 49.789 169.422 50.105 168.773 50.738 168.277 51.371 167.777 52.203 167.531 53.234 167.531 54.266 167.531 55.098 167.777 55.734 168.277 56.367 168.773 56.68 169.422 56.68 170.219 56.68 170.699 56.586 171.113 56.398 171.461 56.207 171.805 55.918 172.09 55.527 172.316ZM53.234 168.648C52.441 168.648 51.82 168.812 51.371 169.137 50.918 169.465 50.691 169.914 50.691 170.484 50.691 171.055 50.918 171.504 51.371 171.828 51.82 172.156 52.441 172.316 53.234 172.316 54.027 172.316 54.648 172.156 55.102 171.828 55.551 171.504 55.777 171.055 55.777 170.484 55.777 169.914 55.551 169.465 55.102 169.137 54.648 168.812 54.027 168.648 53.234 168.648ZM53.234 168.648" fill="#262626"/>
<path d="M47.395 164.664H56.512V165.742H47.395Z" fill="#262626"/>
<path d="M52.961 156.797H53.488V161.754C54.23 161.707 54.793 161.48 55.184 161.082 55.57 160.684 55.766 160.125 55.766 159.41 55.766 158.996 55.715 158.594 55.613 158.207 55.512 157.816 55.359 157.43 55.156 157.047H56.176C56.34 157.434 56.465 157.832 56.551 158.238 56.637 158.645 56.68 159.055 56.68 159.473 56.68 160.52 56.379 161.352 55.77 161.961 55.16 162.574 54.332 162.879 53.293 162.879 52.219 162.879 51.367 162.59 50.738 162.008 50.105 161.43 49.789 160.645 49.789 159.66 49.789 158.777 50.074 158.078 50.645 157.566 51.211 157.051 51.984 156.797 52.961 156.797ZM52.645 157.875C52.055 157.883 51.586 158.047 51.234 158.367 50.879 158.691 50.703 159.117 50.703 159.648 50.703 160.25 50.875 160.73 51.215 161.094 51.555 161.453 52.031 161.664 52.648 161.719ZM52.645 157.875" fill="#262626"/>
<path d="M49.949 149.781 53.141 152.152 56.512 149.66V150.93L53.934 152.84 56.512 154.75V156.023L53.078 153.473 49.949 155.805V154.535L52.285 152.793 49.949 151.055ZM49.949 149.781" fill="#262626"/>
<path d="M49.949 148.137V147.059H56.512V148.137ZM47.395 148.137V147.059H48.758V148.137ZM47.395 148.137" fill="#262626"/>
<path d="M48.086 143.734H49.949V141.516H50.785V143.734H54.348C54.883 143.734 55.227 143.66 55.379 143.516 55.531 143.367 55.609 143.07 55.609 142.621V141.516H56.512V142.621C56.512 143.453 56.355 144.027 56.047 144.344 55.734 144.66 55.168 144.816 54.348 144.816H50.785V145.609H49.949V144.816H48.086ZM48.086 143.734" fill="#262626"/>
<path d="M57.121 137.367C57.902 137.668 58.41 137.965 58.648 138.258 58.887 138.547 59.008 138.934 59.008 139.414V140.277H58.105V139.645C58.105 139.348 58.035 139.117 57.895 138.953 57.754 138.789 57.422 138.605 56.898 138.41L56.406 138.215 49.949 140.867V139.727L55.082 137.676 49.949 135.625V134.48ZM57.121 137.367" fill="#262626"/>
<path d="M47.406 126.59C48.305 127.113 49.191 127.5 50.07 127.758 50.949 128.012 51.84 128.137 52.742 128.137 53.645 128.137 54.539 128.008 55.422 127.754 56.309 127.496 57.199 127.109 58.094 126.59V127.527C57.176 128.113 56.273 128.551 55.387 128.844 54.5 129.133 53.617 129.281 52.742 129.281 51.871 129.281 50.996 129.137 50.113 128.848 49.23 128.555 48.328 128.117 47.406 127.527ZM47.406 126.59" fill="#262626"/>
<path d="M56.551 120.336V120.863L54.242 123.176 53.539 122.473 54.91 121.098H47.762V120.102H54.91L53.539 118.742 54.242 118.039ZM56.551 120.336" fill="#262626"/>
<path d="M47.406 114.613V113.676C48.328 113.09 49.23 112.652 50.113 112.359 50.996 112.07 51.871 111.922 52.742 111.922 53.617 111.922 54.5 112.07 55.387 112.359 56.273 112.652 57.176 113.09 58.094 113.676V114.613C57.199 114.094 56.309 113.707 55.422 113.449 54.539 113.195 53.645 113.066 52.742 113.066 51.84 113.066 50.949 113.195 50.07 113.449 49.191 113.707 48.305 114.094 47.406 114.613ZM47.406 114.613" fill="#262626"/>
<g clip-path="url(#clip_32)">
<g clip-path="url(#clip_33)">
<path stroke-width="1.5" stroke-linecap="round" stroke-linejoin="round" fill="none" stroke="#d86929" d="M98.719 111.801 107.438 130.465 116.156 142.133 124.875 146.801 133.594 163.133 142.312 177.133 151.031 186.465 159.75 205.133 168.469 207.465 177.188 219.133 185.906 226.133 194.625 241.301 203.344 249.465 212.062 256.465 220.781 264.633 229.5 270.465 238.219 272.801 246.938 273.965H264.375L273.094 276.301H281.812L290.531 278.633 299.25 282.133 307.969 284.465H316.688L325.406 287.965 334.125 290.301 342.844 291.465 351.562 293.801H360.281L369 294.965H386.438L395.156 297.301 403.875 294.965 412.594 297.301 421.312 294.965 438.75 287.965 456.188 276.301 464.906 268.133 473.625 262.301 482.344 254.133 491.062 244.801 499.781 236.633 508.5 226.133 517.219 216.801 525.938 207.465 534.656 198.133 543.375 184.133 552.094 177.133 560.812 165.465 569.531 151.465 578.25 139.801 586.969 130.465 595.688 116.465 604.406 104.801 621.844 81.465 630.562 65.133 639.281 55.801"/>
</g>
<g clip-path="url(#clip_34)">
<path stroke-width="1.5" stroke-linecap="butt" stroke-dasharray="5.55,2.4" stroke-linejoin="round" fill="none" stroke="#d86929" d="M98.719 111.801 107.438 130.465 116.156 142.133 124.875 146.801 133.594 163.133 142.312 177.133 151.031 186.465 159.75 205.133 168.469 207.465 177.188 219.133 185.906 226.133 194.625 241.301 203.344 249.465 212.062 256.465 220.781 264.633 229.5 270.465 238.219 272.801 246.938 273.965H264.375L273.094 276.301H281.812L290.531 278.633 299.25 282.133 307.969 284.465H316.688L325.406 287.965 334.125 290.301 342.844 291.465 351.562 293.801H360.281L369 294.965H386.438L395.156 297.301H403.875L412.594 298.465H438.75L447.469 300.801H456.188L464.906 301.965H491.062L499.781 304.301H508.5L517.219 305.465H525.938L534.656 307.801H595.688L604.406 305.465 613.125 307.801H621.844L630.562 305.465H639.281"/>
</g>
<g clip-path="url(#clip_35)">
<path stroke-width="1.5" stroke-linecap="round" stroke-linejoin="round" fill="none" stroke="#00008b" d="M98.719 111.801 107.438 139.801 116.156 153.801 124.875 179.465 133.594 195.801 142.312 207.465 151.031 221.465 159.75 226.133 168.469 236.633 177.188 241.301 185.906 249.465 194.625 251.801H203.344L212.062 258.801 220.781 262.301 229.5 259.965 238.219 258.801 246.938 256.465 255.656 251.801 273.094 256.465 281.812 258.801H290.531L299.25 262.301 316.688 266.965 325.406 268.133 334.125 272.801H342.844L351.562 273.965H369L377.719 278.633 386.438 280.965 395.156 282.133 403.875 284.465 412.594 285.633 421.312 287.965 430.031 290.301H447.469L456.188 291.465H473.625L482.344 287.965 491.062 285.633 499.781 284.465 508.5 282.133 517.219 278.633 525.938 273.965 534.656 268.133 543.375 264.633 552.094 259.965 560.812 258.801 578.25 249.465 586.969 244.801"/>
</g>
<g clip-path="url(#clip_36)">
<path stroke-width="1.5" stroke-linecap="butt" stroke-dasharray="5.55,2.4" stroke-linejoin="round" fill="none" stroke="#00008b" d="M98.719 111.801 107.438 139.801 116.156 153.801 124.875 179.465 133.594 195.801 142.312 207.465 151.031 221.465 159.75 226.133 168.469 236.633 177.188 241.301 185.906 249.465 194.625 251.801H203.344L212.062 258.801 220.781 262.301 229.5 259.965 238.219 258.801 246.938 256.465 255.656 251.801 273.094 256.465 281.812 258.801H290.531L299.25 262.301 316.688 266.965 325.406 268.133 334.125 272.801H342.844L351.562 273.965H369L377.719 278.633 386.438 280.965 395.156 282.133 403.875 284.465 412.594 285.633 421.312 287.965 430.031 290.301H438.75L447.469 291.465 456.188 293.801H464.906L473.625 297.301H499.781L508.5 298.465H517.219L525.938 297.301H552.094L560.812 298.465H586.969"/>
</g>
<g clip-path="url(#clip_37)">
<path stroke-width="1.5" stroke-linecap="butt" stroke-dasharray="5.55,2.4" stroke-linejoin="round" fill="none" stroke="#000000" d="M369 320.398V43.199"/>
</g>
</g>
<path stroke-width="1.25" stroke-linecap="square" stroke-miterlimit="4" stroke-linejoin="miter" fill="none" stroke="#cccccc" d="M90 320.398V43.199"/>
<path stroke-width="1.25" stroke-linecap="square" stroke-miterlimit="4" stroke-linejoin="miter" fill="none" stroke="#cccccc" d="M648 320.398V43.199"/>
<path stroke-width="1.25" stroke-linecap="square" stroke-miterlimit="4" stroke-linejoin="miter" fill="none" stroke="#cccccc" d="M90 320.398H648"/>
<path stroke-width="1.25" stroke-linecap="square" stroke-miterlimit="4" stroke-linejoin="miter" fill="none" stroke="#cccccc" d="M90 43.199H648"/>
<g opacity=".8">
<g clip-path="url(#clip_38)">
<path d="M97.699 132.73H264.324C265.793 132.73 266.527 131.996 266.527 130.531V50.898C266.527 49.434 265.793 48.699 264.324 48.699H97.699C96.234 48.699 95.5 49.434 95.5 50.898V130.531C95.5 131.996 96.234 132.73 97.699 132.73ZM97.699 132.73" fill="#ffffff"/>
<path stroke-width="1" stroke-linecap="butt" stroke-miterlimit="4" stroke-linejoin="miter" fill="none" stroke="#cccccc" d="M97.699 132.73H264.324C265.793 132.73 266.527 131.996 266.527 130.531V50.898C266.527 49.434 265.793 48.699 264.324 48.699H97.699C96.234 48.699 95.5 49.434 95.5 50.898V130.531C95.5 131.996 96.234 132.73 97.699 132.73ZM97.699 132.73"/>
</g>
</g>
<path stroke-width="1.5" stroke-linecap="round" stroke-linejoin="round" fill="none" stroke="#d86929" d="M99.898 57.609H121.898"/>
<path d="M132.863 57.629V60.566H134.605C135.188 60.566 135.621 60.445 135.902 60.203 136.184 59.961 136.324 59.594 136.324 59.094 136.324 58.594 136.184 58.223 135.902 57.988 135.621 57.75 135.188 57.629 134.605 57.629ZM132.863 54.332V56.746H134.473C135 56.746 135.395 56.648 135.652 56.449 135.914 56.25 136.043 55.945 136.043 55.539 136.043 55.133 135.914 54.832 135.652 54.633 135.395 54.43 135 54.332 134.473 54.332ZM131.781 53.438H134.551C135.379 53.438 136.016 53.609 136.465 53.953 136.91 54.297 137.137 54.785 137.137 55.422 137.137 55.91 137.02 56.301 136.793 56.594 136.562 56.883 136.227 57.062 135.781 57.133 136.316 57.25 136.73 57.488 137.023 57.852 137.32 58.215 137.469 58.668 137.469 59.215 137.469 59.93 137.227 60.484 136.738 60.875 136.25 61.262 135.559 61.457 134.66 61.457H131.781ZM131.781 53.438" fill="#262626"/>
<path d="M138.215 53.438H144.996V54.352H142.152V61.457H141.062V54.352H138.215ZM138.215 53.438" fill="#262626"/>
<path d="M146.047 53.438H147.129V60.547H151.035V61.457H146.047ZM146.047 53.438" fill="#262626"/>
<path d="M152.172 53.438H153.789L155.836 58.895 157.895 53.438H159.512V61.457H158.453V54.418L156.383 59.918H155.293L153.227 54.418V61.457H152.172ZM152.172 53.438" fill="#262626"/>
<path d="M161.121 58.004H164.016V58.887H161.121Z" fill="#262626"/>
<path d="M169.02 57.133C169.535 57.246 169.941 57.477 170.234 57.828 170.523 58.18 170.672 58.613 170.672 59.129 170.672 59.918 170.398 60.531 169.855 60.965 169.309 61.398 168.535 61.613 167.535 61.613 167.199 61.613 166.852 61.582 166.496 61.516 166.141 61.449 165.773 61.348 165.395 61.215V60.168C165.691 60.344 166.023 60.477 166.379 60.566 166.738 60.656 167.113 60.699 167.504 60.699 168.184 60.699 168.699 60.566 169.059 60.297 169.414 60.031 169.59 59.641 169.59 59.129 169.59 58.656 169.426 58.285 169.094 58.02 168.766 57.754 168.305 57.617 167.715 57.617H166.777V56.727H167.758C168.289 56.727 168.695 56.621 168.98 56.406 169.262 56.195 169.406 55.887 169.406 55.484 169.406 55.074 169.258 54.758 168.965 54.539 168.676 54.316 168.258 54.207 167.715 54.207 167.414 54.207 167.098 54.238 166.754 54.305 166.414 54.367 166.043 54.469 165.633 54.605V53.637C166.047 53.523 166.434 53.438 166.793 53.379 167.152 53.324 167.492 53.293 167.809 53.293 168.633 53.293 169.285 53.48 169.762 53.855 170.242 54.23 170.484 54.734 170.484 55.371 170.484 55.816 170.355 56.191 170.102 56.496 169.848 56.805 169.484 57.016 169.02 57.133ZM169.02 57.133" fill="#262626"/>
<path d="M173.715 57.629V60.566H175.457C176.039 60.566 176.473 60.445 176.754 60.203 177.035 59.961 177.176 59.594 177.176 59.094 177.176 58.594 177.035 58.223 176.754 57.988 176.473 57.75 176.039 57.629 175.457 57.629ZM173.715 54.332V56.746H175.324C175.852 56.746 176.246 56.648 176.508 56.449 176.766 56.25 176.895 55.945 176.895 55.539 176.895 55.133 176.766 54.832 176.508 54.633 176.246 54.43 175.852 54.332 175.324 54.332ZM172.633 53.438H175.402C176.23 53.438 176.867 53.609 177.316 53.953 177.762 54.297 177.988 54.785 177.988 55.422 177.988 55.91 177.871 56.301 177.645 56.594 177.414 56.883 177.078 57.062 176.633 57.133 177.168 57.25 177.582 57.488 177.879 57.852 178.172 58.215 178.32 58.668 178.32 59.215 178.32 59.93 178.078 60.484 177.59 60.875 177.105 61.262 176.41 61.457 175.512 61.457H172.633ZM172.633 53.438" fill="#262626"/>
<path d="M179.637 58.004H182.532V58.887H179.637Z" fill="#262626"/>
<path d="M186.562 57.648C186.047 57.648 185.645 57.789 185.348 58.062 185.055 58.34 184.906 58.719 184.906 59.203 184.906 59.684 185.055 60.066 185.348 60.34 185.645 60.617 186.047 60.754 186.562 60.754 187.078 60.754 187.484 60.617 187.781 60.34 188.082 60.062 188.23 59.684 188.23 59.203 188.23 58.719 188.082 58.34 187.785 58.062 187.492 57.789 187.086 57.648 186.562 57.648ZM185.48 57.188C185.016 57.074 184.652 56.859 184.391 56.539 184.133 56.219 184.004 55.832 184.004 55.371 184.004 54.73 184.23 54.227 184.688 53.852 185.145 53.48 185.77 53.293 186.562 53.293 187.363 53.293 187.988 53.48 188.445 53.852 188.898 54.227 189.125 54.73 189.125 55.371 189.125 55.832 188.996 56.219 188.738 56.539 188.477 56.859 188.117 57.074 187.656 57.188 188.18 57.309 188.586 57.547 188.875 57.902 189.168 58.258 189.312 58.691 189.312 59.203 189.312 59.98 189.078 60.578 188.602 60.992 188.129 61.406 187.449 61.613 186.562 61.613 185.68 61.613 185 61.406 184.527 60.992 184.051 60.578 183.812 59.98 183.812 59.203 183.812 58.691 183.961 58.258 184.254 57.902 184.547 57.547 184.957 57.309 185.48 57.188ZM185.082 55.477C185.082 55.891 185.211 56.215 185.473 56.445 185.73 56.68 186.094 56.797 186.562 56.797 187.031 56.797 187.395 56.68 187.656 56.445 187.922 56.215 188.051 55.891 188.051 55.477 188.051 55.059 187.922 54.734 187.656 54.504 187.395 54.27 187.031 54.152 186.562 54.152 186.094 54.152 185.73 54.27 185.473 54.504 185.211 54.734 185.082 55.059 185.082 55.477ZM185.082 55.477" fill="#262626"/>
<path d="M191.145 53.438H192.23V56.828L195.828 53.438H197.227L193.246 57.176 197.512 61.457H196.082L192.23 57.598V61.457H191.145ZM191.145 53.438" fill="#262626"/>
<path stroke-width="1.5" stroke-linecap="butt" stroke-dasharray="5.55,2.4" stroke-linejoin="round" fill="none" stroke="#d86929" d="M99.898 73.754H121.898"/>
<path d="M132.863 73.773V76.711H134.605C135.188 76.711 135.621 76.59 135.902 76.348 136.184 76.109 136.324 75.738 136.324 75.242 136.324 74.738 136.184 74.371 135.902 74.133 135.621 73.895 135.188 73.773 134.605 73.773ZM132.863 70.477V72.895H134.473C135 72.895 135.395 72.793 135.652 72.598 135.914 72.395 136.043 72.094 136.043 71.684 136.043 71.281 135.914 70.977 135.652 70.777 135.395 70.578 135 70.477 134.473 70.477ZM131.781 69.586H134.551C135.379 69.586 136.016 69.758 136.465 70.102 136.91 70.445 137.137 70.934 137.137 71.566 137.137 72.059 137.02 72.449 136.793 72.738 136.562 73.027 136.227 73.207 135.781 73.281 136.316 73.395 136.73 73.633 137.023 74 137.32 74.363 137.469 74.816 137.469 75.359 137.469 76.074 137.227 76.629 136.738 77.02 136.25 77.41 135.559 77.605 134.66 77.605H131.781ZM131.781 69.586" fill="#262626"/>
<path d="M138.215 69.586H144.996V70.5H142.152V77.605H141.062V70.5H138.215ZM138.215 69.586" fill="#262626"/>
<path d="M146.047 69.586H147.129V76.691H151.035V77.605H146.047ZM146.047 69.586" fill="#262626"/>
<path d="M152.172 69.586H153.789L155.836 75.043 157.895 69.586H159.512V77.605H158.453V70.562L156.383 76.062H155.293L153.227 70.562V77.605H152.172ZM152.172 69.586" fill="#262626"/>
<path d="M161.121 74.152H164.016V75.031H161.121Z" fill="#262626"/>
<path d="M169.02 73.281C169.535 73.391 169.941 73.621 170.234 73.973 170.523 74.324 170.672 74.758 170.672 75.273 170.672 76.062 170.398 76.676 169.855 77.109 169.309 77.543 168.535 77.762 167.535 77.762 167.199 77.762 166.852 77.727 166.496 77.66 166.141 77.594 165.773 77.496 165.395 77.363V76.316C165.691 76.492 166.023 76.621 166.379 76.711 166.738 76.801 167.113 76.848 167.504 76.848 168.184 76.848 168.699 76.711 169.059 76.445 169.414 76.176 169.59 75.785 169.59 75.273 169.59 74.801 169.426 74.43 169.094 74.164 168.766 73.898 168.305 73.766 167.715 73.766H166.777V72.871H167.758C168.289 72.871 168.695 72.766 168.98 72.555 169.262 72.34 169.406 72.031 169.406 71.633 169.406 71.219 169.258 70.906 168.965 70.684 168.676 70.465 168.258 70.352 167.715 70.352 167.414 70.352 167.098 70.387 166.754 70.449 166.414 70.516 166.043 70.613 165.633 70.75V69.785C166.047 69.668 166.434 69.582 166.793 69.527 167.152 69.469 167.492 69.441 167.809 69.441 168.633 69.441 169.285 69.629 169.762 70.004 170.242 70.375 170.484 70.883 170.484 71.52 170.484 71.961 170.355 72.34 170.102 72.645 169.848 72.949 169.484 73.16 169.02 73.281ZM169.02 73.281" fill="#262626"/>
<path d="M173.715 73.773V76.711H175.457C176.039 76.711 176.473 76.59 176.754 76.348 177.035 76.109 177.176 75.738 177.176 75.242 177.176 74.738 177.035 74.371 176.754 74.133 176.473 73.895 176.039 73.773 175.457 73.773ZM173.715 70.477V72.895H175.324C175.852 72.895 176.246 72.793 176.508 72.598 176.766 72.395 176.895 72.094 176.895 71.684 176.895 71.281 176.766 70.977 176.508 70.777 176.246 70.578 175.852 70.477 175.324 70.477ZM172.633 69.586H175.402C176.23 69.586 176.867 69.758 177.316 70.102 177.762 70.445 177.988 70.934 177.988 71.566 177.988 72.059 177.871 72.449 177.645 72.738 177.414 73.027 177.078 73.207 176.633 73.281 177.168 73.395 177.582 73.633 177.879 74 178.172 74.363 178.32 74.816 178.32 75.359 178.32 76.074 178.078 76.629 177.59 77.02 177.105 77.41 176.41 77.605 175.512 77.605H172.633ZM172.633 69.586" fill="#262626"/>
<path d="M179.637 74.152H182.532V75.031H179.637Z" fill="#262626"/>
<path d="M186.562 73.797C186.047 73.797 185.645 73.934 185.348 74.211 185.055 74.484 184.906 74.863 184.906 75.348 184.906 75.832 185.055 76.211 185.348 76.488 185.645 76.762 186.047 76.902 186.562 76.902 187.078 76.902 187.484 76.762 187.781 76.484 188.082 76.207 188.23 75.828 188.23 75.348 188.23 74.863 188.082 74.484 187.785 74.211 187.492 73.934 187.086 73.797 186.562 73.797ZM185.48 73.336C185.016 73.219 184.652 73.004 184.391 72.684 184.133 72.367 184.004 71.977 184.004 71.52 184.004 70.879 184.23 70.371 184.688 70 185.145 69.625 185.77 69.441 186.562 69.441 187.363 69.441 187.988 69.625 188.445 70 188.898 70.371 189.125 70.879 189.125 71.52 189.125 71.977 188.996 72.367 188.738 72.684 188.477 73.004 188.117 73.219 187.656 73.336 188.18 73.457 188.586 73.695 188.875 74.051 189.168 74.402 189.312 74.836 189.312 75.348 189.312 76.125 189.078 76.723 188.602 77.137 188.129 77.555 187.449 77.762 186.562 77.762 185.68 77.762 185 77.555 184.527 77.137 184.051 76.723 183.812 76.125 183.812 75.348 183.812 74.836 183.961 74.402 184.254 74.051 184.547 73.695 184.957 73.457 185.48 73.336ZM185.082 71.621C185.082 72.035 185.211 72.359 185.473 72.594 185.73 72.824 186.094 72.941 186.562 72.941 187.031 72.941 187.395 72.824 187.656 72.594 187.922 72.359 188.051 72.035 188.051 71.621 188.051 71.207 187.922 70.883 187.656 70.648 187.395 70.414 187.031 70.301 186.562 70.301 186.094 70.301 185.73 70.414 185.473 70.648 185.211 70.883 185.082 71.207 185.082 71.621ZM185.082 71.621" fill="#262626"/>
<path d="M191.145 69.586H192.23V72.973L195.828 69.586H197.227L193.246 73.324 197.512 77.605H196.082L192.23 73.742V77.605H191.145ZM191.145 69.586" fill="#262626"/>
<path d="M205.836 70.707V73.699H208.828V74.613H205.836V77.605H204.934V74.613H201.941V73.699H204.934V70.707ZM205.836 70.707" fill="#262626"/>
<path d="M215.652 70.477V73.488H217.02C217.523 73.488 217.914 73.359 218.188 73.098 218.465 72.836 218.602 72.465 218.602 71.98 218.602 71.5 218.465 71.129 218.188 70.867 217.914 70.605 217.523 70.477 217.02 70.477ZM214.57 69.586H217.02C217.918 69.586 218.598 69.789 219.059 70.195 219.52 70.602 219.746 71.195 219.746 71.98 219.746 72.773 219.52 73.371 219.059 73.773 218.598 74.18 217.918 74.383 217.02 74.383H215.652V77.605H214.57ZM214.57 69.586" fill="#262626"/>
<path d="M221.203 69.586H222.289V77.606H221.203Z" fill="#262626"/>
<path stroke-width="1.5" stroke-linecap="round" stroke-linejoin="round" fill="none" stroke="#00008b" d="M99.898 89.898H121.898"/>
<path d="M131.781 85.73H133.398L135.441 91.188 137.5 85.73H139.117V93.75H138.059V86.707L135.992 92.207H134.902L132.832 86.707V93.75H131.781ZM131.781 85.73" fill="#262626"/>
<path d="M142.355 86.621V89.637H143.719C144.227 89.637 144.613 89.504 144.891 89.242 145.164 88.98 145.305 88.609 145.305 88.125 145.305 87.645 145.164 87.277 144.891 87.016 144.613 86.754 144.227 86.621 143.719 86.621ZM141.27 85.73H143.719C144.617 85.73 145.297 85.934 145.758 86.34 146.219 86.746 146.449 87.344 146.449 88.125 146.449 88.918 146.219 89.516 145.758 89.922 145.297 90.324 144.617 90.527 143.719 90.527H142.355V93.75H141.27ZM141.27 85.73" fill="#262626"/>
<path d="M146.793 85.73H153.574V86.645H150.73V93.75H149.641V86.645H146.793ZM146.793 85.73" fill="#262626"/>
<path d="M153.078 90.297H155.973V91.175998H153.078Z" fill="#262626"/>
<path d="M157.41 85.73H162.566V86.191L159.656 93.75H158.523L161.262 86.645H157.41ZM157.41 85.73" fill="#262626"/>
<path d="M165.672 89.922V92.859H167.414C167.996 92.859 168.426 92.738 168.707 92.496 168.988 92.254 169.133 91.883 169.133 91.387 169.133 90.887 168.988 90.516 168.707 90.277 168.426 90.039 167.996 89.922 167.414 89.922ZM165.672 86.621V89.039H167.277C167.809 89.039 168.203 88.941 168.461 88.742 168.723 88.543 168.852 88.238 168.852 87.832 168.852 87.426 168.723 87.125 168.461 86.922 168.203 86.723 167.809 86.621 167.277 86.621ZM164.586 85.73H167.359C168.188 85.73 168.824 85.902 169.27 86.246 169.719 86.59 169.941 87.078 169.941 87.711 169.941 88.203 169.828 88.594 169.598 88.883 169.371 89.176 169.031 89.355 168.59 89.426 169.121 89.539 169.535 89.781 169.832 90.145 170.129 90.508 170.277 90.961 170.277 91.504 170.277 92.223 170.031 92.773 169.547 93.164 169.059 93.555 168.363 93.75 167.465 93.75H164.586ZM164.586 85.73" fill="#262626"/>
<path d="M171.59 90.297H174.485V91.175998H171.59Z" fill="#262626"/>
<path d="M178.52 89.941C178.004 89.941 177.598 90.078 177.301 90.355 177.008 90.633 176.859 91.012 176.859 91.492 176.859 91.977 177.008 92.355 177.301 92.633 177.598 92.91 178.004 93.047 178.52 93.047 179.035 93.047 179.441 92.91 179.738 92.633 180.035 92.352 180.184 91.973 180.184 91.492 180.184 91.012 180.035 90.633 179.742 90.355 179.445 90.078 179.039 89.941 178.52 89.941ZM177.434 89.48C176.969 89.367 176.605 89.148 176.348 88.832 176.086 88.512 175.957 88.121 175.957 87.664 175.957 87.023 176.188 86.516 176.641 86.145 177.098 85.773 177.727 85.586 178.52 85.586 179.316 85.586 179.945 85.773 180.398 86.145 180.855 86.516 181.082 87.023 181.082 87.664 181.082 88.121 180.953 88.512 180.691 88.832 180.434 89.148 180.07 89.367 179.609 89.48 180.133 89.602 180.539 89.84 180.832 90.195 181.121 90.551 181.27 90.98 181.27 91.492 181.27 92.27 181.031 92.867 180.559 93.285 180.082 93.699 179.402 93.906 178.52 93.906 177.637 93.906 176.957 93.699 176.48 93.285 176.008 92.867 175.77 92.27 175.77 91.492 175.77 90.98 175.914 90.551 176.207 90.195 176.504 89.84 176.91 89.602 177.434 89.48ZM177.039 87.766C177.039 88.184 177.168 88.504 177.426 88.738 177.688 88.973 178.051 89.086 178.52 89.086 178.984 89.086 179.348 88.973 179.613 88.738 179.875 88.504 180.008 88.184 180.008 87.766 180.008 87.352 179.875 87.027 179.613 86.793 179.348 86.562 178.984 86.445 178.52 86.445 178.051 86.445 177.688 86.562 177.426 86.793 177.168 87.027 177.039 87.352 177.039 87.766ZM177.039 87.766" fill="#262626"/>
<path d="M183.102 85.73H184.184V89.121L187.785 85.73H189.184L185.199 89.469 189.465 93.75H188.035L184.184 89.887V93.75H183.102ZM183.102 85.73" fill="#262626"/>
<path stroke-width="1.5" stroke-linecap="butt" stroke-dasharray="5.55,2.4" stroke-linejoin="round" fill="none" stroke="#00008b" d="M99.898 106.047H121.898"/>
<path d="M131.781 101.875H133.398L135.441 107.332 137.5 101.875H139.117V109.895H138.059V102.855L135.992 108.355H134.902L132.832 102.855V109.895H131.781ZM131.781 101.875" fill="#262626"/>
<path d="M142.355 102.77V105.781H143.719C144.227 105.781 144.613 105.652 144.891 105.391 145.164 105.129 145.305 104.758 145.305 104.273 145.305 103.793 145.164 103.422 144.891 103.16 144.613 102.898 144.227 102.77 143.719 102.77ZM141.27 101.875H143.719C144.617 101.875 145.297 102.078 145.758 102.488 146.219 102.895 146.449 103.488 146.449 104.273 146.449 105.062 146.219 105.664 145.758 106.066 145.297 106.473 144.617 106.672 143.719 106.672H142.355V109.895H141.27ZM141.27 101.875" fill="#262626"/>
<path d="M146.793 101.875H153.574V102.789H150.73V109.895H149.641V102.789H146.793ZM146.793 101.875" fill="#262626"/>
<path d="M153.078 106.441H155.973V107.324008H153.078Z" fill="#262626"/>
<path d="M157.41 101.875H162.566V102.34L159.656 109.895H158.523L161.262 102.789H157.41ZM157.41 101.875" fill="#262626"/>
<path d="M165.672 106.066V109.004H167.414C167.996 109.004 168.426 108.883 168.707 108.641 168.988 108.398 169.133 108.031 169.133 107.531 169.133 107.031 168.988 106.66 168.707 106.426 168.426 106.188 167.996 106.066 167.414 106.066ZM165.672 102.77V105.184H167.277C167.809 105.184 168.203 105.086 168.461 104.887 168.723 104.688 168.852 104.383 168.852 103.977 168.852 103.57 168.723 103.27 168.461 103.07 168.203 102.867 167.809 102.77 167.277 102.77ZM164.586 101.875H167.359C168.188 101.875 168.824 102.047 169.27 102.391 169.719 102.734 169.941 103.223 169.941 103.859 169.941 104.352 169.828 104.742 169.598 105.031 169.371 105.32 169.031 105.5 168.59 105.57 169.121 105.688 169.535 105.926 169.832 106.289 170.129 106.652 170.277 107.105 170.277 107.652 170.277 108.367 170.031 108.922 169.547 109.312 169.059 109.703 168.363 109.895 167.465 109.895H164.586ZM164.586 101.875" fill="#262626"/>
<path d="M171.59 106.441H174.485V107.324008H171.59Z" fill="#262626"/>
<path d="M178.52 106.086C178.004 106.086 177.598 106.227 177.301 106.5 177.008 106.777 176.859 107.156 176.859 107.641 176.859 108.121 177.008 108.504 177.301 108.777 177.598 109.055 178.004 109.191 178.52 109.191 179.035 109.191 179.441 109.055 179.738 108.777 180.035 108.5 180.184 108.121 180.184 107.641 180.184 107.156 180.035 106.777 179.742 106.5 179.445 106.227 179.039 106.086 178.52 106.086ZM177.434 105.625C176.969 105.512 176.605 105.297 176.348 104.977 176.086 104.656 175.957 104.27 175.957 103.809 175.957 103.168 176.188 102.664 176.641 102.289 177.098 101.918 177.727 101.73 178.52 101.73 179.316 101.73 179.945 101.918 180.398 102.289 180.855 102.664 181.082 103.168 181.082 103.809 181.082 104.27 180.953 104.656 180.691 104.977 180.434 105.297 180.07 105.512 179.609 105.625 180.133 105.75 180.539 105.988 180.832 106.34 181.121 106.695 181.27 107.129 181.27 107.641 181.27 108.418 181.031 109.016 180.559 109.43 180.082 109.844 179.402 110.051 178.52 110.051 177.637 110.051 176.957 109.844 176.48 109.43 176.008 109.016 175.77 108.418 175.77 107.641 175.77 107.129 175.914 106.695 176.207 106.34 176.504 105.988 176.91 105.75 177.434 105.625ZM177.039 103.914C177.039 104.328 177.168 104.652 177.426 104.883 177.688 105.117 178.051 105.234 178.52 105.234 178.984 105.234 179.348 105.117 179.613 104.883 179.875 104.652 180.008 104.328 180.008 103.914 180.008 103.496 179.875 103.172 179.613 102.941 179.348 102.707 178.984 102.59 178.52 102.59 178.051 102.59 177.688 102.707 177.426 102.941 177.168 103.172 177.039 103.496 177.039 103.914ZM177.039 103.914" fill="#262626"/>
<path d="M183.102 101.875H184.184V105.266L187.785 101.875H189.184L185.199 105.613 189.465 109.895H188.035L184.184 106.035V109.895H183.102ZM183.102 101.875" fill="#262626"/>
<path d="M197.793 103V105.992H200.781V106.902H197.793V109.895H196.891V106.902H193.898V105.992H196.891V103ZM197.793 103" fill="#262626"/>
<path d="M207.609 102.77V105.781H208.973C209.48 105.781 209.867 105.652 210.145 105.391 210.422 105.129 210.559 104.758 210.559 104.273 210.559 103.793 210.422 103.422 210.145 103.16 209.867 102.898 209.48 102.77 208.973 102.77ZM206.523 101.875H208.973C209.871 101.875 210.551 102.078 211.012 102.488 211.473 102.895 211.703 103.488 211.703 104.273 211.703 105.062 211.473 105.664 211.012 106.066 210.551 106.473 209.871 106.672 208.973 106.672H207.609V109.895H206.523ZM206.523 101.875" fill="#262626"/>
<path d="M213.156 101.875H214.242V109.895008H213.156Z" fill="#262626"/>
<path stroke-width="1.5" stroke-linecap="butt" stroke-dasharray="5.55,2.4" stroke-linejoin="round" fill="none" stroke="#000000" d="M99.898 122.191H121.898"/>
<path d="M130.668 118.023H137.453V118.938H134.605V126.043H133.516V118.938H130.668ZM130.668 118.023" fill="#262626"/>
<path d="M140.32 120.949C140.207 120.887 140.086 120.84 139.957 120.809 139.824 120.777 139.684 120.762 139.523 120.762 138.965 120.762 138.535 120.945 138.238 121.309 137.938 121.672 137.789 122.191 137.789 122.871V126.043H136.797V120.027H137.789V120.961C137.996 120.598 138.27 120.324 138.602 120.148 138.934 119.973 139.34 119.883 139.816 119.883 139.883 119.883 139.957 119.887 140.039 119.895 140.121 119.902 140.215 119.918 140.312 119.934ZM140.32 120.949" fill="#262626"/>
<path d="M144.09 123.02C143.293 123.02 142.738 123.109 142.43 123.293 142.121 123.473 141.969 123.785 141.969 124.227 141.969 124.578 142.082 124.855 142.316 125.062 142.547 125.266 142.859 125.371 143.258 125.371 143.805 125.371 144.246 125.176 144.578 124.789 144.906 124.398 145.074 123.883 145.074 123.238V123.02ZM146.062 122.609V126.043H145.074V125.129C144.848 125.492 144.566 125.762 144.23 125.938 143.891 126.113 143.48 126.199 142.992 126.199 142.379 126.199 141.887 126.027 141.523 125.68 141.16 125.332 140.98 124.871 140.98 124.289 140.98 123.613 141.207 123.105 141.656 122.762 142.113 122.418 142.789 122.246 143.688 122.246H145.074V122.148C145.074 121.691 144.922 121.34 144.625 121.094 144.324 120.844 143.906 120.719 143.363 120.719 143.02 120.719 142.688 120.762 142.359 120.844 142.035 120.926 141.723 121.051 141.422 121.215V120.301C141.781 120.16 142.133 120.055 142.473 119.988 142.812 119.918 143.145 119.883 143.465 119.883 144.336 119.883 144.988 120.109 145.418 120.559 145.848 121.008 146.062 121.691 146.062 122.609ZM146.062 122.609" fill="#262626"/>
<path d="M148.098 120.027H149.086V126.043H148.098ZM148.098 117.684H149.086V118.938H148.098ZM148.098 117.684" fill="#262626"/>
<path d="M156.152 122.41V126.043H155.164V122.441C155.164 121.875 155.055 121.449 154.832 121.164 154.609 120.883 154.277 120.742 153.832 120.742 153.301 120.742 152.879 120.91 152.57 121.25 152.262 121.59 152.109 122.055 152.109 122.641V126.043H151.113V120.027H152.109V120.961C152.344 120.598 152.625 120.328 152.945 120.148 153.266 119.973 153.633 119.883 154.055 119.883 154.746 119.883 155.266 120.098 155.621 120.523 155.977 120.949 156.152 121.578 156.152 122.41ZM156.152 122.41" fill="#262626"/>
<path d="M158.125 120.027H159.113V126.043H158.125ZM158.125 117.684H159.113V118.938H158.125ZM158.125 117.684" fill="#262626"/>
<path d="M166.184 122.41V126.043H165.195V122.441C165.195 121.875 165.082 121.449 164.859 121.164 164.637 120.883 164.305 120.742 163.863 120.742 163.328 120.742 162.906 120.91 162.598 121.25 162.289 121.59 162.137 122.055 162.137 122.641V126.043H161.141V120.027H162.137V120.961C162.375 120.598 162.652 120.328 162.973 120.148 163.293 119.973 163.664 119.883 164.082 119.883 164.773 119.883 165.297 120.098 165.648 120.523 166.004 120.949 166.184 121.578 166.184 122.41ZM166.184 122.41" fill="#262626"/>
<path d="M172.109 122.965C172.109 122.246 171.961 121.691 171.668 121.301 171.371 120.906 170.957 120.707 170.426 120.707 169.895 120.707 169.48 120.906 169.188 121.301 168.891 121.691 168.742 122.246 168.742 122.965 168.742 123.676 168.891 124.23 169.188 124.625 169.48 125.02 169.895 125.215 170.426 125.215 170.957 125.215 171.371 125.02 171.668 124.625 171.961 124.23 172.109 123.676 172.109 122.965ZM173.098 125.297C173.098 126.32 172.871 127.082 172.418 127.582 171.961 128.078 171.266 128.328 170.328 128.328 169.98 128.328 169.652 128.305 169.344 128.254 169.035 128.199 168.738 128.121 168.449 128.012V127.051C168.738 127.211 169.023 127.324 169.309 127.398 169.59 127.477 169.879 127.512 170.172 127.512 170.82 127.512 171.305 127.344 171.629 127.008 171.949 126.668 172.109 126.156 172.109 125.473V124.984C171.906 125.34 171.645 125.605 171.328 125.777 171.008 125.953 170.625 126.043 170.184 126.043 169.445 126.043 168.852 125.762 168.398 125.199 167.949 124.637 167.723 123.891 167.723 122.965 167.723 122.035 167.949 121.289 168.398 120.727 168.852 120.164 169.445 119.883 170.184 119.883 170.625 119.883 171.008 119.969 171.328 120.145 171.645 120.32 171.906 120.586 172.109 120.938V120.027H173.098ZM173.098 125.297" fill="#262626"/>
<path d="M184.68 118.641V119.785C184.312 119.445 183.926 119.191 183.512 119.023 183.098 118.855 182.656 118.77 182.191 118.77 181.277 118.77 180.574 119.051 180.086 119.609 179.602 120.172 179.355 120.98 179.355 122.039 179.355 123.098 179.602 123.906 180.086 124.465 180.574 125.027 181.277 125.305 182.191 125.305 182.656 125.305 183.098 125.223 183.512 125.055 183.926 124.887 184.312 124.633 184.68 124.289V125.426C184.301 125.684 183.898 125.875 183.473 126.008 183.047 126.133 182.602 126.199 182.129 126.199 180.914 126.199 179.957 125.828 179.258 125.086 178.559 124.34 178.211 123.328 178.211 122.039 178.211 120.75 178.559 119.734 179.258 118.992 179.957 118.25 180.914 117.879 182.129 117.879 182.609 117.879 183.059 117.941 183.484 118.07 183.906 118.195 184.309 118.387 184.68 118.641ZM184.68 118.641" fill="#262626"/>
<path d="M188.641 120.719C188.113 120.719 187.695 120.926 187.387 121.34 187.078 121.754 186.922 122.32 186.922 123.039 186.922 123.758 187.078 124.324 187.383 124.738 187.691 125.152 188.109 125.359 188.641 125.359 189.168 125.359 189.586 125.152 189.895 124.738 190.203 124.32 190.355 123.754 190.355 123.039 190.355 122.328 190.203 121.762 189.895 121.344 189.586 120.926 189.168 120.719 188.641 120.719ZM188.641 119.883C189.5 119.883 190.176 120.16 190.668 120.723 191.16 121.277 191.406 122.051 191.406 123.039 191.406 124.023 191.16 124.797 190.668 125.359 190.176 125.918 189.5 126.199 188.641 126.199 187.781 126.199 187.102 125.918 186.613 125.359 186.125 124.797 185.883 124.023 185.883 123.039 185.883 122.051 186.125 121.277 186.613 120.723 187.102 120.16 187.781 119.883 188.641 119.883ZM188.641 119.883" fill="#262626"/>
<path d="M198.043 122.41V126.043H197.055V122.441C197.055 121.875 196.945 121.449 196.723 121.164 196.5 120.883 196.168 120.742 195.723 120.742 195.188 120.742 194.77 120.91 194.461 121.25 194.152 121.59 193.996 122.055 193.996 122.641V126.043H193.004V120.027H193.996V120.961C194.234 120.598 194.512 120.328 194.832 120.148 195.152 119.973 195.523 119.883 195.941 119.883 196.633 119.883 197.156 120.098 197.512 120.523 197.867 120.949 198.043 121.578 198.043 122.41ZM198.043 122.41" fill="#262626"/>
<path d="M200.992 118.316V120.027H203.027V120.793H200.992V124.059C200.992 124.551 201.059 124.867 201.191 125.004 201.328 125.145 201.602 125.215 202.012 125.215H203.027V126.043H202.012C201.25 126.043 200.723 125.898 200.434 125.617 200.145 125.332 199.996 124.812 199.996 124.059V120.793H199.273V120.027H199.996V118.316ZM200.992 118.316" fill="#262626"/>
<path d="M209.473 122.785V123.27H204.93C204.973 123.949 205.176 124.469 205.543 124.824 205.91 125.18 206.422 125.359 207.078 125.359 207.457 125.359 207.824 125.312 208.18 125.219 208.535 125.129 208.891 124.988 209.242 124.801V125.734C208.887 125.887 208.523 126 208.152 126.078 207.777 126.16 207.402 126.199 207.02 126.199 206.059 126.199 205.297 125.918 204.738 125.363 204.176 124.801 203.898 124.047 203.898 123.094 203.898 122.109 204.164 121.328 204.695 120.75 205.227 120.172 205.941 119.883 206.848 119.883 207.656 119.883 208.293 120.145 208.766 120.664 209.238 121.184 209.473 121.891 209.473 122.785ZM208.484 122.496C208.477 121.957 208.324 121.527 208.031 121.203 207.734 120.879 207.344 120.719 206.855 120.719 206.305 120.719 205.863 120.875 205.531 121.188 205.203 121.5 205.012 121.938 204.961 122.504ZM208.484 122.496" fill="#262626"/>
<path d="M215.902 120.027 213.727 122.953 216.016 126.043H214.848L213.098 123.68 211.348 126.043H210.18L212.52 122.895 210.379 120.027H211.547L213.141 122.168 214.734 120.027ZM215.902 120.027" fill="#262626"/>
<path d="M218.391 118.316V120.027H220.426V120.793H218.391V124.059C218.391 124.551 218.457 124.867 218.59 125.004 218.723 125.145 218.996 125.215 219.41 125.215H220.426V126.043H219.41C218.648 126.043 218.121 125.898 217.832 125.617 217.539 125.332 217.395 124.812 217.395 124.059V120.793H216.672V120.027H217.395V118.316ZM218.391 118.316" fill="#262626"/>
<path d="M225.266 118.023H226.348V125.129H230.254V126.043H225.266ZM225.266 118.023" fill="#262626"/>
<path d="M236.301 122.785V123.27H231.758C231.801 123.949 232.008 124.469 232.375 124.824 232.738 125.18 233.25 125.359 233.906 125.359 234.285 125.359 234.652 125.312 235.012 125.219 235.367 125.129 235.719 124.988 236.07 124.801V125.734C235.719 125.887 235.352 126 234.98 126.078 234.609 126.16 234.23 126.199 233.848 126.199 232.887 126.199 232.129 125.918 231.566 125.363 231.008 124.801 230.727 124.047 230.727 123.094 230.727 122.109 230.992 121.328 231.523 120.75 232.055 120.172 232.773 119.883 233.676 119.883 234.484 119.883 235.125 120.145 235.598 120.664 236.066 121.184 236.301 121.891 236.301 122.785ZM235.312 122.496C235.309 121.957 235.156 121.527 234.859 121.203 234.566 120.879 234.172 120.719 233.688 120.719 233.137 120.719 232.695 120.875 232.363 121.188 232.031 121.5 231.84 121.938 231.789 122.504ZM235.312 122.496" fill="#262626"/>
<path d="M242.926 122.41V126.043H241.938V122.441C241.938 121.875 241.828 121.449 241.605 121.164 241.383 120.883 241.051 120.742 240.605 120.742 240.07 120.742 239.652 120.91 239.344 121.25 239.035 121.59 238.879 122.055 238.879 122.641V126.043H237.887V120.027H238.879V120.961C239.117 120.598 239.395 120.328 239.715 120.148 240.035 119.973 240.406 119.883 240.824 119.883 241.516 119.883 242.039 120.098 242.395 120.523 242.75 120.949 242.926 121.578 242.926 122.41ZM242.926 122.41" fill="#262626"/>
<path d="M248.855 122.965C248.855 122.246 248.707 121.691 248.41 121.301 248.117 120.906 247.703 120.707 247.168 120.707 246.641 120.707 246.227 120.906 245.93 121.301 245.637 121.691 245.488 122.246 245.488 122.965 245.488 123.676 245.637 124.23 245.93 124.625 246.227 125.02 246.641 125.215 247.168 125.215 247.703 125.215 248.117 125.02 248.41 124.625 248.707 124.23 248.855 123.676 248.855 122.965ZM249.844 125.297C249.844 126.32 249.613 127.082 249.16 127.582 248.707 128.078 248.012 128.328 247.07 128.328 246.727 128.328 246.398 128.305 246.09 128.254 245.781 128.199 245.48 128.121 245.191 128.012V127.051C245.48 127.211 245.77 127.324 246.051 127.398 246.332 127.477 246.621 127.512 246.914 127.512 247.562 127.512 248.051 127.344 248.371 127.008 248.691 126.668 248.855 126.156 248.855 125.473V124.984C248.648 125.34 248.391 125.605 248.07 125.777 247.75 125.953 247.371 126.043 246.926 126.043 246.188 126.043 245.594 125.762 245.145 125.199 244.691 124.637 244.465 123.891 244.465 122.965 244.465 122.035 244.691 121.289 245.145 120.727 245.594 120.164 246.188 119.883 246.926 119.883 247.371 119.883 247.75 119.969 248.07 120.145 248.391 120.32 248.648 120.586 248.855 120.938V120.027H249.844ZM249.844 125.297" fill="#262626"/>
<path d="M252.855 118.316V120.027H254.891V120.793H252.855V124.059C252.855 124.551 252.922 124.867 253.059 125.004 253.191 125.145 253.465 125.215 253.879 125.215H254.891V126.043H253.879C253.113 126.043 252.586 125.898 252.297 125.617 252.008 125.332 251.863 124.812 251.863 124.059V120.793H251.137V120.027H251.863V118.316ZM252.855 118.316" fill="#262626"/>
<path d="M261.191 122.41V126.043H260.203V122.441C260.203 121.875 260.094 121.449 259.871 121.164 259.648 120.883 259.316 120.742 258.871 120.742 258.34 120.742 257.918 120.91 257.609 121.25 257.301 121.59 257.148 122.055 257.148 122.641V126.043H256.152V117.684H257.148V120.961C257.383 120.598 257.664 120.328 257.98 120.148 258.305 119.973 258.672 119.883 259.094 119.883 259.785 119.883 260.305 120.098 260.66 120.523 261.016 120.949 261.191 121.578 261.191 122.41ZM261.191 122.41" fill="#262626"/>
</g>
</svg>
