<?xml version="1.0" encoding="UTF-8"?>
<svg width="500px" height="500px" viewBox="0 0 500 500" version="1.1" xmlns="http://www.w3.org/2000/svg" xmlns:xlink="http://www.w3.org/1999/xlink">
    <!-- Generator: Sketch 46.2 (44496) - http://www.bohemiancoding.com/sketch -->
    <title>Artboard 11</title>
    <desc>Created with Sketch.</desc>
    <defs></defs>
    <g id="Website-Icons" stroke="none" stroke-width="1" fill="none" fill-rule="evenodd">
        <g id="Artboard-11" fill-rule="nonzero" fill="#555555">
            <g id="apple-link" transform="translate(79.000000, 44.000000)">
                <g id="apple">
                    <path d="M79.275,382.6625 C72.7125,378.4625 65.8875,372.425 59.0625,364.025 C54.3375,358.5125 48.5625,350.6375 41.7375,340.4 C29.925,323.3375 20.2125,303.65 12.8625,281.3375 C4.725,256.925 0.7875,233.5625 0.7875,210.725 C0.7875,185.2625 6.3,162.95 17.0625,144.3125 C25.4625,129.35 36.75,117.5375 51.1875,108.875 C65.625,99.95 80.85,95.4875 97.3875,95.225 C103.1625,95.225 109.2,96.0125 115.7625,97.5875 C120.4875,98.9 126.2625,101 133.0875,103.625 C142.0125,107.0375 147,109.1375 148.575,109.6625 C153.825,111.5 158.2875,112.2875 161.7,112.2875 C164.325,112.2875 168,111.5 172.2,110.1875 C174.5625,109.4 179.025,107.825 185.325,105.2 C191.625,102.8375 196.6125,101 200.55,99.425 C206.5875,97.5875 212.3625,96.0125 217.6125,95.225 C223.9125,94.175 230.2125,93.9125 236.25,94.4375 C247.8,95.225 258.3,97.5875 267.75,101.2625 C284.2875,107.825 297.675,118.325 307.65,133.025 C303.45,135.65 299.5125,138.5375 295.8375,141.95 C287.7,149.3 280.875,157.4375 275.8875,166.3625 C268.8,178.9625 265.3875,192.875 265.3875,207.3125 C265.65,224.9 270.1125,240.3875 279.0375,253.775 C285.3375,263.4875 293.7375,271.8875 303.975,278.7125 C308.9625,282.125 313.425,284.4875 317.625,286.0625 C315.525,292.8875 313.1625,298.925 311.0625,303.9125 C305.2875,317.5625 298.4625,329.9 290.85,341.45 C283.7625,351.6875 278.25,359.3 274.05,364.2875 C267.4875,372.1625 261.1875,377.9375 254.8875,382.1375 C247.5375,386.8625 239.6625,389.225 231.2625,389.225 C225.4875,389.4875 219.975,388.7 214.4625,387.125 C211.3125,386.075 206.5875,384.5 200.55,381.875 C194.5125,379.25 189.525,377.4125 185.85,376.3625 C179.8125,374.7875 173.5125,374 166.95,374 C160.3875,374 154.0875,374.7875 148.05,376.3625 C143.85,377.4125 139.125,379.25 133.35,381.6125 C126.525,384.5 122.0625,386.3375 119.4375,387.125 C114.1875,388.7 108.675,389.75 103.425,390.0125 C95.025,390.0125 87.15,387.65 79.275,382.6625 Z M190.575,82.8875 C179.55,88.4 169.05,90.7625 158.55,89.975 C156.975,79.475 158.55,68.7125 163.0125,56.9 C166.95,46.925 172.2,37.7375 179.2875,29.6 C186.375,21.4625 195.0375,14.6375 205.8,9.125 C216.5625,3.6125 226.8,0.725 236.5125,0.2 C237.825,11.225 236.5125,22.25 232.575,33.8 C228.9,44.3 223.3875,53.75 216.3,62.4125 C209.2125,71.075 200.55,77.9 190.575,82.8875 Z" id="Shape"></path>
                </g>
            </g>
        </g>
    </g>
</svg>