<?xml version="1.0" encoding="UTF-8"?>
<svg width="500px" height="500px" viewBox="0 0 500 500" version="1.1" xmlns="http://www.w3.org/2000/svg" xmlns:xlink="http://www.w3.org/1999/xlink">
    <!-- Generator: Sketch 52.6 (67491) - http://www.bohemiancoding.com/sketch -->
    <title>Artboard 11</title>
    <desc>Created with Sketch.</desc>
    <g id="Artboard-11" stroke="none" stroke-width="1" fill="none" fill-rule="evenodd">
        <g id="5b48c125b9f3727b3a2178f6_nav_logo" transform="translate(28.000000, 213.000000)" fill="#0073CB">
            <path d="M146.465632,23.002381 C140.860797,22.908994 135.563413,25.5675428 132.274945,30.124128 L132.274945,24.6047741 L120,24.6047741 L120,72 L132.487805,72 L132.487805,46.6109721 C132.373794,43.149822 133.763937,39.8097764 136.297069,37.4585942 C138.8302,35.1074121 142.25626,33.977191 145.685144,34.3615674 C151.184035,34.8600897 155.512195,38.9907029 155.512195,47.8928866 L155.512195,72 L168,72 L168,47.0738857 C168,28.0588213 157.002217,23.1092072 146.465632,23.002381 Z" id="Path"></path>
            <path d="M368.536009,23.0055375 C355.320099,23.3302503 344.826029,34.2510182 345.002186,47.4962673 C344.826029,60.7415163 355.320099,71.6622843 368.536009,71.9869971 C377.584409,72.2975609 385.898567,67.0213555 389.486001,58.6920295 L378.557089,54.5286054 C376.694994,58.3198455 372.745586,60.6225472 368.536009,60.3713938 C363.63726,60.3062968 359.288042,57.2153548 357.607097,52.6043338 L392,52.6043338 L392,47.9510951 C391.948901,44.3185508 391.324313,40.7170038 390.149417,37.2801343 C386.608374,28.4813653 378.001957,22.7972488 368.536009,23.0055375 Z M357.397597,43.36783 C358.465767,39.5340286 361.387115,36.4958875 365.170877,35.2837802 C368.954639,34.0716729 373.093115,34.8482385 376.182756,37.3501078 C377.944009,38.9424434 379.164766,41.0463608 379.674422,43.36783 L357.397597,43.36783 Z" id="Shape" fill-rule="nonzero"></path>
            <path d="M51.6823266,26 L66,26 C65.7972725,24.3274094 65.4131044,22.683068 64.8545861,21.0973245 L64.639821,20.5485176 C64.1529634,19.2694269 63.5413795,18.0436772 62.8143177,16.8898045 C57.1491087,6.10414104 45.9679279,-0.440843226 34,0.023137378 L34,14.0360083 C41.7576578,13.8667727 48.804153,18.6344829 51.6823266,26 Z" id="Path"></path>
            <path d="M53.694588,47.9328755 C50.1188649,54.959097 42.8453699,59.3167948 34.9739253,59.1488029 C22.9291215,59.1488029 14.1339423,49.9496196 14.1339423,37 L0.00514026772,37 C-0.155321041,46.4264924 3.44669358,55.5273006 10.0118669,62.2828788 C16.5770402,69.0384571 25.562366,72.8900509 34.9739253,72.9829593 C46.1547671,73.3339473 56.8144528,68.2455939 63.5847494,59.3257102 L63.9379694,58.8303696 L64.5384435,57.9104513 C64.8210195,57.4504921 65.1389176,56.9551515 65.4568156,56.3890479 L65.7040697,55.9644702 C65.9866457,55.4691295 66.2338997,54.9384074 66.4811538,54.3723038 L66.4811538,54.0538706 C67.361414,52.1253353 67.8764298,50.0498065 68,47.9328755 L53.694588,47.9328755 Z" id="Path"></path>
            <path d="M93.4498655,23 C79.9465776,23 69,34.1928813 69,48 C69,61.8071187 79.9465776,73 93.4498655,73 C99.7832358,72.9726144 105.841234,70.3489367 110.267039,65.7165975 C114.692844,61.0842583 117.116605,54.8303665 116.995468,48.3556188 C117.249891,34.7416793 106.759545,23.4449115 93.4498655,23 Z M93.4498655,61.086771 C90.292903,61.0062142 87.3040761,59.614907 85.1716606,57.2332438 C83.0392452,54.8515806 81.9470485,51.6848529 82.1465848,48.4623044 C82.1465848,41.3499289 86.2853245,35.2332859 93.4498655,35.2332859 C100.614406,35.2332859 104.54447,41.2432432 104.54447,48.4623044 C104.54447,55.6813656 100.475289,61.086771 93.4498655,61.086771 Z" id="Shape" fill-rule="nonzero"></path>
            <path d="M335.7776,10 L323,10 L323,58.8280982 C323,66.4762993 326.1328,72 333.56,72 L345,72 L345,60.4922901 L340.4944,60.4922901 C337.96,60.4922901 336.024,60.4922901 336.024,56.9514563 L336.024,35.7064535 L344.8592,35.7064535 L344.8592,25.083952 L335.7776,25.083952 L335.7776,10 Z" id="Path"></path>
            <path d="M198.368189,23.002381 C192.78399,22.908994 187.50611,25.5675428 184.22975,30.124128 L184.22975,24.6047741 L172,24.6047741 L172,72 L184.441826,72 L184.441826,46.6109721 C184.320872,43.1148825 185.729288,39.7415094 188.294349,37.3835846 C190.859411,35.0256598 194.322559,33.9208626 197.767305,34.3615674 C203.24595,34.8600897 207.558174,38.9907029 207.558174,47.8928866 L207.558174,72 L220,72 L220,47.0738857 C219.82327,28.0588213 208.830633,23.1092072 198.368189,23.002381 Z" id="Path"></path>
            <path d="M320,41.8525803 C319.834397,40.4579216 319.53001,39.0837533 319.091474,37.7509962 C318.812958,36.9535355 318.486203,36.1741756 318.113061,35.4173363 L317.868458,34.9223175 C313.804797,27.4001425 305.931212,22.8026695 297.461566,23.0065085 C283.830903,23.1425733 272.884903,34.4243247 273.00125,48.2171073 C272.935181,54.8017317 275.491021,61.136148 280.09262,65.7924205 C284.694219,70.448693 290.954257,73.0349 297.461566,72.9680459 C306.140268,73.4448801 314.238399,68.5506452 317.938345,60.5925766 L317.938345,60.3450672 L317.938345,59.9914824 C318.554773,58.5925776 318.932838,57.0982156 319.056531,55.5716719 L307.175806,55.5716719 C305.599306,59.6937764 301.536824,62.2809618 297.182019,61.936199 C289.145058,61.936199 285.371181,55.7484644 285.371181,48.2878243 C285.371181,40.8271843 289.145058,34.3565818 297.182019,34.3565818 C301.966142,34.1496961 306.280717,37.2494411 307.665012,41.8879388 L319.68551,41.8879388 L320,41.8525803 Z" id="Path"></path>
            <path d="M247.553508,23.004797 C234.327772,23.3295147 223.8259,34.2504477 224.002187,47.4958969 C223.8259,60.7413462 234.327772,71.6622791 247.553508,71.9869969 C256.608635,72.2975654 264.928973,67.0212803 268.519075,58.6918283 L257.582037,54.5283414 C255.718558,58.3196388 251.766213,60.6223753 247.553508,60.3712181 C242.647861,60.3161355 238.290301,57.2215182 236.61647,52.6040406 L271,52.6040406 L271,47.9507317 C270.948277,44.3181872 270.32324,40.7166774 269.148042,37.2796095 C265.608909,28.4928688 257.013838,22.8111982 247.553508,23.004797 Z M236.301987,43.4023845 C237.370951,39.5685252 240.29447,36.5303382 244.081045,35.3182126 C247.86762,34.1060869 252.009173,34.8826643 255.101112,37.3845714 C256.863674,38.9769311 258.085338,41.0808802 258.595373,43.4023845 L236.301987,43.4023845 Z" id="Shape" fill-rule="nonzero"></path>
            <path d="M419.525346,62.8924795 L418.890244,62.8924795 C412.539222,62.8924795 406.258767,58.142509 406.258767,48.6068538 C406.258767,39.0711987 412.715639,34.3212281 418.890244,34.3212281 C422.433986,34.3211177 425.817578,35.8153498 428.227894,38.4448388 C430.63821,41.0743279 431.857332,44.6013406 431.592287,48.1782851 L445,48.1782851 L445,2 L432.086256,2 L432.086256,28.9284044 C427.902027,24.7771326 422.158322,22.6441043 416.314551,23.0712979 C405.447247,23.7498651 394.685794,31.3926749 394.015408,47.6425741 C393.52144,64.7853249 404.988563,73.8924113 416.314551,73.9995535 C417.376795,74.0063873 418.438116,73.9347691 419.490062,73.7852691 L419.525346,62.8924795 Z" id="Path"></path>
        </g>
    </g>
</svg>