<?xml version="1.0" encoding="UTF-8"?>
<svg width="500px" height="500px" viewBox="0 0 500 500" version="1.1" xmlns="http://www.w3.org/2000/svg" xmlns:xlink="http://www.w3.org/1999/xlink">
    <!-- Generator: Sketch 52.6 (67491) - http://www.bohemiancoding.com/sketch -->
    <title>Artboard 11</title>
    <desc>Created with Sketch.</desc>
    <g id="Artboard-11" stroke="none" stroke-width="1" fill="none" fill-rule="evenodd">
        <g id="logo" transform="translate(18.000000, 183.000000)" fill="#000000">
            <g id="PARABOL" transform="translate(189.000000, 39.500000)">
                <g id="path0_fill-link" transform="translate(0.351142, 0.533139)" fill-rule="nonzero">
                    <path d="M15.2782014,0.87144756 C20.1707724,0.87144756 23.9736435,2.07806726 26.6868147,4.49130665 C29.4444406,6.85984467 30.823271,10.2786005 30.823271,14.7475741 C30.823271,19.1718463 29.4444406,22.5906021 26.6868147,25.0038415 C23.9736435,27.3723795 20.1707724,28.5566662 15.2782014,28.5566662 L7.93932738,28.5566662 L7.93932738,44.3767911 L0,44.3767911 L0,0.87144756 L15.2782014,0.87144756 Z M15.2782014,21.6521201 C17.7245045,21.6521201 19.5703191,21.0041089 20.8157155,19.7081217 C22.0611119,18.4121346 22.6837925,16.7586069 22.6837925,14.7475741 C22.6837925,12.6918399 22.0611119,11.0159792 20.8157155,9.71999201 C19.5703191,8.37930346 17.7245045,7.70895918 15.2782014,7.70895918 L7.93932738,7.70895918 L7.93932738,21.6521201 L15.2782014,21.6521201 Z" id="path0_fill"></path>
                </g>
                <g id="path1_fill-link" transform="translate(27.691326, 0.533139)" fill-rule="nonzero">
                    <path d="M15.3857575,0.87144756 L25.259879,0.87144756 L39.4706078,44.3767911 L31.1309782,44.3767911 L28.1287116,34.9919713 L12.0499057,34.9919713 L8.98092201,44.3767911 L0.641432861,44.3767911 L15.3857575,0.87144756 Z M14.0514168,29.0259072 L26.1939175,29.0259072 L20.1893842,10.3233019 L14.0514168,29.0259072 Z" id="path1_fill"></path>
                </g>
                <g id="path2_fill-link" transform="translate(74.091025, 0.533139)" fill-rule="nonzero">
                    <path d="M32.8995754,14.2112987 C32.8995754,17.2948823 32.032254,19.9315581 30.297611,22.1213611 C28.562968,24.3111642 26.0723157,25.8305877 22.8253029,26.6797022 L34.4340673,44.3767911 L24.1596436,44.3767911 L14.6191073,27.4170809 L8.61457403,27.4170809 L8.61457403,44.3767911 L0.741963678,44.3767911 L0.741963678,0.87144756 L16.7540525,0.87144756 C21.8691424,0.87144756 25.8496915,2.10041442 28.6964021,4.55834108 C31.4985177,6.9268791 32.8995754,10.1445316 32.8995754,14.2112987 Z M16.0201651,22.1213611 C18.9111197,22.1213611 21.0906599,21.4733499 22.5584347,20.1773627 C24.0262095,18.8366742 24.7600969,17.0937791 24.7600969,14.9486774 C24.7600969,12.7588743 24.0929266,11.0159792 22.7585858,9.71999201 C21.4242451,8.37930346 19.422734,7.70895918 16.7540525,7.70895918 L8.61457403,7.70895918 L8.61457403,22.1213611 L16.0201651,22.1213611 Z" id="path2_fill"></path>
                </g>
                <g id="path3_fill-link" transform="translate(112.716678, 0.533139)" fill-rule="nonzero">
                    <path d="M15.0597909,0.87144756 L24.9339124,0.87144756 L39.1446412,44.3767911 L30.8050116,44.3767911 L27.802745,34.9919713 L11.7239391,34.9919713 L8.65495539,44.3767911 L0.315325785,44.3767911 L15.0597909,0.87144756 Z M13.7254502,29.0259072 L25.8679509,29.0259072 L19.8634176,10.3233019 L13.7254502,29.0259072 Z" id="path3_fill"></path>
                </g>
                <g id="path4_fill-link" transform="translate(159.387482, 0.533139)" fill-rule="nonzero">
                    <path d="M0.14489217,0.87144756 L17.6247558,0.87144756 C22.4283825,0.87144756 26.1424146,2.01103283 28.766501,4.29020337 C31.2571533,6.39060368 32.502655,9.09434912 32.502655,12.4013691 C32.502655,14.8593099 31.8133627,16.9597102 30.4344269,18.7026053 C29.1000862,20.4455004 27.2098872,21.6744532 24.7634788,22.3894988 C27.2098872,22.8810729 29.2335202,23.9983251 30.8347291,25.7412202 C32.435938,27.439414 33.2365424,29.629217 33.2365424,32.3105941 C33.2365424,37.6733484 30.5899829,41.3380147 25.2972151,43.3042403 C23.295704,44.0193918 20.7604566,44.3767911 17.6914729,44.3767911 L0.14489217,44.3767911 L0.14489217,0.87144756 Z M17.4913217,37.4722451 C20.0265691,37.4722451 21.8500511,36.9581969 22.9621188,35.9304532 C24.1184304,34.9026038 24.6967617,33.5395469 24.6967617,31.8413531 C24.6967617,30.1431594 24.0963084,28.7801025 22.8954017,27.7522531 C21.7390901,26.6797022 19.9377301,26.1434268 17.4913217,26.1434268 L8.01750252,26.1434268 L8.01750252,37.4722451 L17.4913217,37.4722451 Z M8.01750252,19.2388807 L17.2911706,19.2388807 C19.6483889,19.2388807 21.4276269,18.7249384 22.6285336,17.6970889 C23.8294402,16.6692394 24.4298936,15.2838495 24.4298936,13.5409544 C24.4298936,11.7533579 23.8294402,10.3456349 22.6285336,9.31778545 C21.472222,8.24523461 19.7151059,7.70895918 17.3578877,7.70895918 L8.01750252,7.70895918 L8.01750252,19.2388807 Z" id="path4_fill"></path>
                </g>
                <g id="path5_fill-link" transform="translate(199.393246, 0.533139)" fill-rule="nonzero">
                    <path d="M20.0134546,0 C22.9044091,0 25.5509687,0.491588155 27.952782,1.47475741 C30.3545953,2.4132394 32.4228234,3.82096238 34.1574664,5.69792635 C37.8047815,9.63062454 39.6282634,15.2615165 39.6282634,22.5906021 C39.6282634,29.9643892 37.8047815,35.6623155 34.1574664,39.6843812 C30.6881805,43.4383091 25.9512709,45.3152731 19.9467376,45.3152731 C13.9867993,45.3152731 9.27201166,43.3935019 5.80272575,39.5503123 C2.15541069,35.5730539 0.331928727,29.9196878 0.331928727,22.5906021 C0.331928727,15.1721137 2.15541069,9.49655568 5.80272575,5.5638575 C9.22741659,1.85462034 13.9643262,0 20.0134546,0 Z M31.4887849,22.724671 C31.4887849,17.719422 30.4434343,13.8761265 28.3530842,11.1947494 C26.306978,8.46867094 23.5273356,7.10564933 20.0134546,7.10564933 C16.4995736,7.10564933 13.6974581,8.46867094 11.607108,11.1947494 C9.51675785,13.8761265 8.47140722,17.719422 8.47140722,22.724671 C8.47140722,27.6852186 9.51675785,31.506181 11.607108,34.1875581 C13.6974581,36.824128 16.4995736,38.1425894 20.0134546,38.1425894 C23.5273356,38.1425894 26.306978,36.824128 28.3530842,34.1875581 C30.4434343,31.506181 31.4887849,27.6852186 31.4887849,22.724671 Z" id="path5_fill"></path>
                </g>
                <g id="path6_fill-link" transform="translate(247.530863, 0.533139)">
                    <polygon id="path6_fill" points="8.67800849 37.4722451 26.4914573 37.4722451 26.4914573 44.3767911 0.805398146 44.3767911 0.805398146 0.87144756 8.67800849 0.87144756"></polygon>
                </g>
            </g>
            <g id="Union" transform="translate(0.000000, 0.500000)" fill-rule="nonzero">
                <g id="path7_fill-link">
                    <path d="M27.7840358,33.2268296 L27.9896272,33.1504068 L28.0718778,33.1193213 C28.8463107,32.8374302 29.6139011,32.5568122 30.4089318,32.2870158 C31.7522063,31.831131 33.136606,31.4136874 34.5278483,31.0052972 L35.391269,30.7493284 C35.9670934,30.578376 36.5429178,30.4069639 37.1320764,30.2459489 C38.7083123,29.828081 40.3259543,29.4580967 41.9502633,29.0972011 L42.7727693,28.9059848 C43.2524475,28.7924292 43.7321257,28.6793332 44.225489,28.5800295 C46.651601,28.0814242 49.1257862,27.6397913 51.6683965,27.2698424 C53.2242803,27.0444993 54.8005163,26.8851818 56.3767522,26.7254754 L57.3294416,26.6287886 C67.5205859,25.556004 77.9173567,25.4709521 88.1085011,26.5337993 L87.8067284,26.1349222 L87.4779365,25.774451 L86.6964856,24.8950753 L86.4908591,24.6667261 L85.9701258,24.0895408 C84.9146232,22.9218022 83.8591206,21.7873064 82.7832659,20.6860533 C82.2281445,20.1118739 81.6660051,19.5467832 81.1042167,18.9963689 C80.014326,17.9236196 78.9111012,16.8983296 77.8145435,15.9015434 L77.2250341,15.3727015 C76.9099272,15.0834899 76.5944695,14.7959758 76.2723447,14.5248709 C74.6754058,13.1339465 73.0717997,11.8099319 71.4611757,10.6089506 C62.2023686,3.66423057 53.3200756,0 45.7606698,0 C42.2860731,0 39.1469354,0.802093505 36.4330866,2.37821518 C28.37344,7.07249229 24.5286103,18.4977636 25.6800135,33.9814391 C26.0501061,33.8372577 26.4338837,33.7038625 26.8176965,33.5704673 L27.7840358,33.2268296 Z M83.8113984,15.0476302 C82.7488778,14.0176367 81.6796902,13.0018244 80.6038354,12.0430552 C79.9185307,11.4352088 79.233226,10.8515517 78.5409033,10.2722091 L77.8692836,9.68943609 L77.7254153,9.56166385 L77.6292691,9.47788516 C77.3552174,9.23744135 77.0811657,9.00042792 76.800096,8.77724203 C89.3762973,0.100153561 101.226139,-2.29662555 109.285575,2.37864663 C117.880131,7.39109182 121.690538,20.0505871 119.744104,37.129276 C119.517774,39.1372771 119.188982,41.2068125 118.798432,43.3000422 L118.537715,44.5738745 L118.387179,45.2935438 C118.085407,46.7647104 117.749597,48.2602786 117.372732,49.7650417 L116.769537,52.0527766 C116.358635,53.5338453 115.920012,55.0336573 115.439983,56.5288719 L115.206987,57.2672844 C115.056451,57.7567302 114.905565,58.2465297 114.740993,58.7363292 L114.432554,59.6996604 L114.412201,59.6476745 C112.335584,54.9813177 110.005268,50.3821536 107.455639,45.9198505 C104.817234,41.3206865 101.91811,36.9726109 98.902489,32.7718289 L97.7785612,31.1969733 C97.0522013,30.1652469 96.3258415,29.1356424 95.5650936,28.1578471 C93.9818397,26.121519 92.3712157,24.1849544 90.7332217,22.3100657 C90.3974118,21.9250161 90.061602,21.5602304 89.7191251,21.1950204 L89.1089126,20.5302016 C87.9920028,19.2959776 86.874742,18.0807444 85.7437963,16.9272578 L84.44863,15.6649897 L83.8113984,15.0476302 Z M121.457541,52.8159443 C121.046288,54.3394505 120.580295,55.8774563 120.093599,57.4151083 L119.792177,58.4215844 L119.682346,58.7932661 L119.353554,59.8407651 C118.565436,62.2002901 117.701875,64.577851 116.755852,66.9752161 C116.324247,68.0690427 115.837551,69.1504917 115.350855,70.231587 L115.206987,70.5509292 L114.466942,72.1964432 C112.355936,76.9713693 110.073693,81.6996141 107.462657,86.2655354 C104.906362,90.7465818 102.123737,95.0851089 99.1358365,99.2620198 L99.6358668,99.1555724 L100.143266,99.0484177 L102.370419,98.5646302 C103.898932,98.2272521 105.399725,97.8665333 106.873148,97.4821203 L109.107669,96.8745568 C110.594777,96.4523036 112.047497,95.9915031 113.479864,95.5119594 L114.021301,95.3344292 C114.466942,95.1922635 114.905565,95.0497443 115.330503,94.895201 C117.331677,94.183312 119.284778,93.4328755 121.155768,92.6166609 C136.761276,85.7863453 145.711994,76.1173146 145.711994,66.0921625 C145.711994,56.7032193 137.837131,47.6184115 123.993133,40.8920677 C123.931726,41.3150281 123.849265,41.7450615 123.760137,42.1747411 L123.602583,43.0231375 C123.438012,43.9868224 123.273792,44.9455563 123.074832,45.9187896 C122.80078,47.2714849 122.485323,48.6386797 122.149513,50.0104719 L122.005644,50.6152063 L121.909849,51.0197771 C121.765981,51.6174385 121.622112,52.2136854 121.457541,52.8159443 Z M115.3098,99.9056552 C116.207749,99.6071781 117.077977,99.2842995 117.948556,98.9614208 L118.846155,98.6445542 C119.257408,98.5041568 119.661994,98.364113 120.052544,98.211338 C121.210859,113.685465 117.35238,125.110701 109.292593,129.814898 C100.691369,134.822877 87.8067284,131.732719 74.2645036,121.593693 C72.6468617,120.378566 71.0362377,119.044614 69.4189466,117.653725 L68.5964406,116.912837 L68.0002641,116.372466 C66.8626513,115.337698 65.7180204,114.274285 64.5804076,113.154289 C64.0459892,112.631954 63.5182379,112.095473 62.9834686,111.549444 C61.8939289,110.429448 60.8110562,109.270904 59.7348506,108.079825 L59.2962275,107.596745 C58.9467326,107.21021 58.5972377,106.823675 58.2614279,106.427945 L57.9736912,106.114969 L57.6241963,105.663717 C67.7465645,106.703435 78.2872037,106.622451 88.4032558,105.573537 L89.5956088,105.450115 L89.650349,105.44481 C91.1241226,105.293096 92.6042123,105.139967 94.0572829,104.933084 C96.5862082,104.562464 99.0467083,104.12076 101.47282,103.627424 C101.993554,103.520977 102.500602,103.400737 103.008001,103.280851 L103.926302,103.067249 C105.488853,102.716079 107.051404,102.359957 108.559215,101.956447 C109.182762,101.788466 109.792974,101.607045 110.402836,101.426332 L111.259379,101.173122 C112.630339,100.769966 113.987263,100.356907 115.3098,99.9056552 Z M65.0944739,120.135611 C64.0319533,119.191023 62.9904866,118.189498 61.9416511,117.178425 L61.4142507,116.667407 C60.9275545,116.205545 60.4478763,115.742977 59.9678472,115.260957 C58.8439194,114.107365 57.7270095,112.896835 56.6097488,111.672159 L55.9037411,110.904041 L54.9924577,109.896857 C53.3544637,108.022181 51.7368217,106.080665 50.1539187,104.049323 C49.440893,103.135503 48.7692733,102.185964 48.0976536,101.233595 L47.9193972,100.982153 L46.8231904,99.4353063 C43.7731809,95.1869589 40.8537056,90.8197865 38.2560042,86.2634135 C35.6930417,81.7869646 33.3696377,77.1920443 31.3067406,72.5500891 L31.2793004,72.4931521 L31.0805515,73.1109714 L30.9434905,73.5325172 L30.5733979,74.6878781 L30.2787134,75.6257469 C29.7920874,77.1499604 29.3466218,78.6639182 28.9354039,80.1637302 C28.7298124,80.9184104 28.524221,81.6730906 28.3391572,82.4277708 C27.9690646,83.918388 27.6332547,85.3994568 27.3316926,86.861075 L27.1809115,87.5687203 L26.9205097,88.8736734 C26.536697,90.9623057 26.2077297,93.0318411 25.9815756,95.0635365 C24.0351769,112.132606 27.8388461,124.797017 36.4264195,129.814191 C44.4928736,134.498937 56.3423642,132.092731 68.9118983,123.420274 C68.5624035,123.143016 68.2195757,122.84277 67.8837658,122.542525 L67.1847761,121.939205 L66.9584465,121.748236 L66.9107243,121.707214 C66.3005119,121.191952 65.6976683,120.676336 65.0944739,120.135611 Z M22.6438995,86.2821568 C22.4451506,87.2553901 22.2806845,88.2236724 22.1161833,89.1919547 L21.9517172,90.0757156 C21.8694666,90.4880667 21.787216,90.901125 21.7324056,91.3042812 C7.87465298,84.5733401 0,75.4881786 0,66.089687 C0,56.074437 8.95749058,46.4100036 24.5766132,39.579688 C26.4133211,38.7772656 28.3459997,38.0271828 30.3403663,37.3202448 L31.6562355,36.8781875 L32.2662023,36.6790849 C33.6848849,36.2140406 35.1242353,35.7631422 36.59064,35.3408537 C37.3377029,35.1271455 38.0917837,34.9229504 38.8591987,34.7235295 C40.3603423,34.3298156 41.8885052,33.9641458 43.444389,33.622241 L44.1363608,33.4685819 C44.602354,33.3636552 45.068698,33.2591882 45.5413583,33.1668159 L45.6648745,33.1396206 C45.9733143,33.0722864 46.261051,33.0079582 46.5421207,32.9911247 C43.5949244,37.0970943 40.8263355,41.4306703 38.2560042,45.9166677 C35.6379507,50.5112344 33.3559175,55.2341745 31.2518952,59.9854062 L30.4980249,61.6669922 C29.9634311,62.8481693 29.4357149,64.0265172 28.9628441,65.2115844 C28.0101899,67.6184979 27.1535063,70.0010099 26.3585107,72.3647786 C26.187167,72.8952474 26.0363859,73.4179359 25.8787624,73.9395635 L25.6388882,74.728901 C25.1454547,76.2951984 24.6657063,77.8568984 24.2544884,79.3995016 C24.048897,80.1828271 23.8638331,80.9594333 23.6788044,81.7381615 L23.5759911,82.1621828 C23.2401813,83.5431698 22.9180565,84.919913 22.6438995,86.2821568 Z" id="path7_fill"></path>
                </g>
            </g>
        </g>
    </g>
</svg>